<?xml version="1.0" encoding="utf-8"?>
<svg data-name="Layer 1" height="513.1" id="Layer_1" viewBox="0 0 691.2 513.1" width="691.2" xmlns="http://www.w3.org/2000/svg" xmlns:xlink="http://www.w3.org/1999/xlink"><style>
a path:hover, a polygon:hover {
    fill: #D35400 !important;
    cursor: pointer;
}
</style>
<g id="features">
<a target="_blank" xlink:href="https://rosschris.com/Navarre"><path d="M445.15,27.95l.1.3.4-.1.5-.3.8-.1.9-.3h.3l.8.4.4.3v.2l-.1.4v.5l.3.9.2.3.5.2.5.1.5-.1.4-.3.2-.4.4-1,.6-.4.8.1,1.2.3,1.7.9h.5l.4-.2h.5l1.1,1.2.2,2-.4,2.2-.7,1.8-.5.7-1.6,1.8-.4.4.5,1.2.8.9.9.5,1,.3,1.1.1.7-.3.3-.7.1-1.5.3-1.1.7-.8.9-.3.9.2-.9.8-.3.7.2.7.7.8.7.5,2.4.4,1.4.8,1.3,1.1,1.5-.2.4.1.6.5.3.2,1.4.2.7.2.5.6,1.4,1,1.5.5,3.3.3,3.1-.6,1.1.4.5,1.6h-1l-1.4.7-.3.5-.1.4v.4l-.1.3-1.1,1.5-.2.5-.1.4.1.9-.3,1.6-.4,1-.4.3-.5.3-.3.2-.3.7-.8.3-1.1,1.1-.5.3-.5.3-1.9.5-.3.3-.1.4v.4l-.1.4-.2.7-.1.3-.5.3h-.8l-.4-.1-2.4.3-.3.3-.1.4v.6l-.4.2-.3.1.1.1.7.3-.1.2-.2.3-1,.6-.5.5-.3.5v.5l-.3.2-.3.2-.4.1-.7-.3-.5.1-.3.2-.2.4-.3.5-.2.4v.8l.1.3.2.4.1.2v.4l-.2.5-.6,1-1.1,1-.9,1.4-.2,1-.1.6v.4l.2.3.3.2.2.3.1.3-.2.5-1.2,1.4-.8,1.3-.2.7-.2.6v.4l-.2.8-.2.6-.3.7-.2.5v.5l.1.4.1.4.3.3.2.4.1.4.1.4v2.3l.1.4.2.3.6.6.2.3.1.3.1.4.2.4.3.3.3.2.4.1h.4l.3.2.1.5-.1.9-.3.6-.8,1.1-.7,1.2-.6,1.3-.2.4-.1.5-.5.6-.3.4-.3.5-.2.3-.2.1-.3-.1-.7-.2h-.4l-1.2-.4h-.6l-.2.1-.6.4-.8.1h-.7l-.7-.3-.7-.5-.2-.2-.5-.7-.3-.3-.3-.2-.7-.3-.7-.3-.4.1-.7.4h-.4l-.4-.1-.8-.3-.3-.2-.3-.3-.5-.6-.3-.3-.4-.2-.3-.2-1.6-.1-.3.1-.5-.3v-.1h-.7l-1.5-1.3-.3-.6-.2-.5v-.9l.1-.4.1-.4,1.7-1.9.5-.6.3-.3.1-.4.2-.3.2-.3h.8l.4.3.4.1.4-.1.8-.3h.4l.4.1.8.5.4-.1.4-.1.2-.2.1-.4-.1-.4-.1-.5v-.3l.1-.1v-.4l-.1-.3-.2-.4v-1.2l-1.2-.8-.8-.3-2-1.1-1-.9-.4-.3h-.2l-.6.1-.3-.1-.2-.3v-1.2l-1.6-1.1-3-3.7h-2.3l-.9-.3-.6-.9.2-.1.2-.3.2-.3-.8-.8-1.2-.1-2.7.2-.8-.1-.6-.2-.5-.4-.5-.6-.3-.4-1.2-.8-.4-.2-2.6.4-1.7-.6-.9-.2.2-.8.3-2.9-.1-1-.1-.4-.2-.3-.3-.1h-.4l-.8,1-.3.2-.4-.1-.6-.4h-.3l-.3-.3-.2-.3v-.7l.6-.6.4-.2.7-.6.6-.6.8-.7.3-.1h.4l.4.1.2.1.2.2.3.6.3.2h.7l.4-.1.4-.2,1.2-.8.2-.3v-.5l-.1-.3-.4-.1-.3-.2-.3-2.1v-.4l.3-.5,1.1-.4.3-.3.1-.5v-.9l.1-.8.4-1.3.9-1.4.1-.5v-.5l-.6-2.3.7-1.3v-.3l.2-.4.2-.3.5-.5.5-.1.8.4.3.1.8-.1h.4l.5-.1.4-.2.4-.3.7-1.1.4-.2,1.1-.2.4-.3.2-.3.2-.6v-.4l-.1-.4v-.5l.2-.4.3-.7.6-1,2-1.5.5-.3.6-.4.4-.5.6-1.1v-1.1l-.2-.4v-.4l-.1-.8v-.5l.3-1.1.1-.3.3.1.5.3.2-.1.2-.1v-.3l.1-.3.2-.1.3.1.3.1h.4l.6-.3.5-.5.6-1.1.6-1.1.4-.4.3-.3,1-.3h0ZM467.75,77.15l-.3-.5.1-.7.3-.3.6-.3.3-.3.3.2v.6l-.3.8-.5.4-.5.1h0ZM472.35,75.55l-.5-.1-.8-.2-.6-.1-.5-.4.1-.5.2-.6.1-.4.5-.5h.6l.1.5v.6l.4.2.4.5.3.2v.5l-.3.3Z" fill="#FFFFFF" id="ESNC" stroke="#000000" stroke-linecap="round" stroke-linejoin="round" stroke-width="0.5"/></a>
<a target="_blank" xlink:href="https://rosschris.com/Basque"><path d="M445.15,27.95l-1,.3-.3.3-.4.4-.6,1.1-.6,1.1-.5.5-.6.3h-.4l-.3-.1-.3-.1-.2.1-.1.3v.3l-.2.1-.2.1-.5-.3-.3-.1-.1.3-.3,1.1v.5l.1.8v.4l.2.4v1.1l-.6,1.1-.4.5-.6.4-.5.3-2,1.5-.6,1-.3.7-.2.4v.5l.1.4v.4l-.2.6-.2.3-.4.3-1.1.2-.4.2-.7,1.1-.4.3-.4.2-.5.1h-.4l-.8.1-.3-.1-.8-.4-.5.1-.5.5-.2.3-.2.4v.3l-.7,1.3.6,2.3v.5l-.1.5-.9,1.4-.4,1.3-.1.8v.9l-.1.5-.3.3-1.1.4-.3.5v.4l.3,2.1.3.2.4.1.1.3v.5l-.2.3-1.2.8-.4.2-.4.1h-.7l-.3-.2-.3-.6-.2-.2-.2-.1-.4-.1h-.4l-.3.1-.8.7-.6.6-.7.6-.4.2-.6.6v.7l.2.3.3.3h.3l.6.4.4.1.3-.2.8-1h.4l.3.1.2.3.1.4.1,1-.3,2.9-.2.8-.8-.1-1.4-.4-1.2-.7-.4-1-.4.1-.3.3-.2.3-.2.4.1.1v.1h.1l.1.2-.8-.1-.7.1-.5.3-.5.5-.1-.9-.4-.3h-.4l-.2.2-.3.4-.6-.3-1.4-1.1-.4-.2-.3-.1-.1-.9v-.8l.1-.3v-.4l-.2-.4-.4-.5-1.4-1-.5-.1-.6.2-.3.3-.2.4-.3.9-.5-.1-.5.3h-.3l-.3-.1-.3-.4.1-.3.4-.5.1-.3-.1-.5-.6.3-.2-.4-.1-.7v-.5l-.2-.7-.4-.5-2.6-2.2-1.1-.5-1-1.3-.6-.3-.8-.5-1.1-1.1-1.3-.7-1.2.6-1.1.3-.1-.1-.6.1.2-.5.1-.4-.2-.4-.3-.3-.2-.3-.2-.4v-.4l.2-.4.2-.5.5-.6.4-.7.3-.6.1-.6-.2-.4-.2-.2-.4.1-.6.8-.3.3-.3.2h-.7l-.4.1-.4.2-.2.3-.2.3-.2.3.1.3-.1.3-.2.2-.3-.2-.3-.2-1.2-1.6-.6-.5-.2-.3.1-.4.1-.4.2-.4.6-.6.5-.7.2-.4.2-.3.4-.3,1.4-.2.5.1.4.1.4.2.2.3.2.7.3.3.3.2.3.1.8.1.4.1.4.1h.4l.7-.2h.8l.4-.1.3-.2.5-.5h.3l.6-.2.2-.1.1-.3.1-.3-.1-.3-.2-.3-1.1-.4-.6-.4-.3-.4-.2-.3v-.5h.5l.7-.1h.3l.1-.1h.1l.1-.2.2-.4.1-.4-.1-.3-.3-.4-.8-.2-.3-.4v-.6l-.2-.2-.3-.2-.8.4-.7,1.6-.5.2-.3-.1-1.2-.1-1.2-.3-.3-.2-.2-.2.2-.4.2-.3.3-.6v-1.3l.2-1v-.7l-.2-.4-.7-.3-.2-.3-.1-.5.3-.9.2-.4.7-.6v-.5l-.1-.2-.3-.2-.9-.1h-1.3l-.9-.2-.7-.6-.2-.1-.3-.1-.4.1-.4.2-3.4,2.1-2.5,1v-.7l-.3-1.2-.2-.4-.2-.3v-.4l.1-.4v-.4l-.1-.5-.1-.3.1-.5.4-.6,3.4-2.5.5-.4.5-.2,2.5.1,1.1-.1.9.3.3.1,1.8-.9.2-.4.2-.5v-2l.7.3.8.1.9-.8,1.3.8,2,1.8v-.4l-.5-1.4-.1-.7-.2-.4v-.2l.2-.2.5-.2.5-.6,1.7-1.1.7-.2v-.4h-.3v-.3l.7-.4,1-.1,2,.1,2-.2.8-.4.7-.2.5.1.9.6.8.8.3.6.5,1.4.1,1.2.2-.2.3-1v-.6l.1-.3.2-.3.4-.1.5.2.5.2,1.2.2,2.4,1,1.7.4.9.3.8,1.2,2.3,1.1,1.6.8,1.6.5,1.8.2,1.7-.2,1.4-.4.4-.1.3.2.2.4.4.4.5.2.1-.1.1-.1.2-.1.3-.1.2.1.1.3.1.2.3.2,1.2-1,.5-.1.8-.2,2.9-1,.9-.6.5-.2h.5l.5.4.3.5.3.3.6-.4-.2-.2-.4-.4-.2-.2,1.6-.8,1.5-1.3,1.5-.8.7.5-.1.6-.1,1.2.1.7,1.1.5.5.7.2,1.1.1.2h0ZM383.75,31.15l-.7-1-.7-.3v2.2l.2.3,1.3-.6-.1-.6ZM409.15,56.75l-2.4-.7-.6-.3-.5-.1-1.1-.1-2.5.1-.5.1-.2.3-.8,1.3-.6.7-.1.3.2.5,1,1,1.1.8,2.5,1.2,2.7.6,2,.9,3.2.1h.2l.2.1.1.3.2.1.5-.1.4-.2.1-.2v-.7l-.2-.5v-.4l-.2-.3-.1-.1h-.3l-.2.2-.4.4-.2.2-.3.1-.2-.1-.3-.2-.4-.6-.2-.2-.2-.2-.2-.2-.1-.2v-.3l.1-.2.2-.2.5-.1.2-.2.2-.2.4-.8v-.2l.1-.3.1-.4-.1-.2h-.8l-.4-.3-.2-.2-.1-.3-.2-.1h-.3l-.4.1-.3.1-.6-.1h0Z" fill="#FFFFFF" id="ESPV" stroke="#000000" stroke-linecap="round" stroke-linejoin="round" stroke-width="0.5"/></a>
<a target="_blank" xlink:href="https://rosschris.com/La_Rioja"><path d="M418.55,71.95l.9.2,1.7.6,2.6-.4.4.2,1.2.8.3.4.5.6.5.4.6.2.8.1,2.7-.2,1.2.1.8.8-.2.3-.2.3-.2.1.6.9.9.3h2.3l3,3.7,1.6,1.1v1.2l.2.3.3.1.6-.1h.2l.4.3,1,.9,2,1.1.8.3,1.2.8v1.2l.2.4.1.3v.4l-.1.1v.3l.1.5.1.4-.1.4-.2.2-.4.1-.4.1-.8-.5-.4-.1h-.4l-.8.3-.4.1-.4-.1-.4-.3h-.8l-.2.3-.2.3-.1.4-.3.3-.5.6-1.7,1.9-.1.4-.1.4v.9l.2.5.3.6,1.5,1.3.3,1-.1.2-.4,1.3-1.6.9-.3.2-.7.5-.4.2-.5.1-1,.1-.4-.1-.4-.4-.4-.3-1-.5h-.7l-2.2-.6-.4-.2-.2-.4-.2-.8-.1-.3.1-.4.2-.2.1-.2h.1v-.2l-.1-.3-.4-.7-.9-.8-.3-.4-.1-.4v-.8l.3-.2.3-.2.3-.3.2-.3v-.4l-.2-.3-.4-.3-.6-.1-.8-.1-.7.1-2.3.8h-.4l-.4-.3-.2-.4-.2-.4v-.4l-.1-.4-.1-.3-.2-.2-.4-.2-2.1-.3-2.5.2-1.1.4-.5.5-.9.6-.4.2-.8-.2-.3.1-.1.2-.1.4v.9l-.1.7-.1.3-.3.2-.2.2-.2.2-.2.3-.2.5-.4.8-.5.7-.1.3-.1.2v.1h-.7l-1.2-.2-1.4.1-.2.1h-.2l-.3-.1-.7-.6-.5-.2-.5-.1h-.6l-.6-.3-.2-.3.1-.4.1-.4.1-.4.1-.4.2-.3.5-.5.2-.4.2-.8v-.3l-.1-.4-.1-.4-.3-.1-.5-.2-1,.1-.5.3-.5.7-.2.4-.2.4-.1.4v.4l.1.4v.4l-.2.5-.5.5-1.1.7-1.2.6-1.6-.5-.3-1.8-.2-.4-.1-.4-.2-.3-.2-.3-.3-.2h-.4l-.3.1-.6.1h-1.5l-.6-.3-.4-.7-.2-.3-.1-.4-.5-.7-.6-.4-.3-.2-.3-.8-.1-.4-1.3-2v-.3l.5-.4.2-.5.5-1.7.1-.6v-1l-.1-.4-.1-.3-.1-.5-.1-.4v-1l-.1-.4-.2-.2-.2-.4.1-.3.4-.2.8-.1.2-.2.7-1.2v-.4l-.1-.4v-1.7l.4-1.1v-.3l-.1-.4-.3-.3-.1-.4-.2-.3-.6-.4-.1-.4.1-.4.3-.7.1-.5v-.4l-.1-.4-.2-.2h-.7l-.3.2h-.3l-.2-.3.1-.4,1.2-1.3.1-.4.3-.3.3-.3.2-.5v-.4l-.2-.4-.4-.6.1-.4.7-.3,1.7-.2,2.6.4.6.2,1.1.2,2.8-.9v.5l.1.7.2.4.6-.3.1.5-.1.3-.4.5-.1.3.3.4.3.1h.3l.5-.3.5.1.3-.9.2-.4.3-.3.6-.2.5.1,1.4,1,.4.5.2.4v.4l-.1.3v.8l.1.9.3.1.4.2,1.4,1.1.6.3.3-.4.2-.2h.4l.4.3.1.9.5-.5.5-.3.7-.1.8.1-.1-.2h-.1v-.1l-.1-.1.2-.4.2-.3.3-.3.4-.1.4,1,1.2.7,1.4.4.8.1h0Z" fill="#FFFFFF" id="ESRI" stroke="#000000" stroke-linecap="round" stroke-linejoin="round" stroke-width="0.5"/></a>
<a target="_blank" xlink:href="https://rosschris.com/Catalonia"><path d="M536.95,178.35l-.2-.2-2.5-1.1-.4-.2-.3-.5-.1-.4v-.4l-.3-.3-.5-.4-1.2-.7-2.9-1-.9-.5-.4-.4-.3-.7v-.5l.2-.5.2-.3.1-.3-.4-.4-.5-.4-.9-.2-.5-.5-.2-.4-.1-.4-.2-.2-.8.2-1.1-.2-.2-.7.2-.2,2.2-1.3.3-.3.3-.7.8-.9.2-.4.2-.4v-.4l-.4-.9-.1-.5-.1-.5v-.4l-.3-.8.1-.6.1-.4.2-.4.1-.4.1-.4.5-.7.2-.5.2-.4.1-1.3-.6-1.9-.6-.5-.6-.3-.7-.5-.4-1.5-.2-.7-.1-.3-.2-.4v-.4l.1-.4.1-.4.2-.3.4-.3h.4l.3-.1.3-.2.1-.3.3-.2.7-.2.4-.2.3-.3.2-.3.3-1v-.5l.1-.4.2-.4.3-.4.6-.4.5-.2.4-.3.1-.1-.2-1.2-.1-1.3,1-2.2-.1-1-.4-.7-.5-.6-.7-.3-.3-.1-.2-1,.6-.9.4-1.5.1-1-.1-1.1.1-.3.4-.3,1.2-.4.3-.2.1-.1.1-.1v-.1l.1-.2.1-.3.2-.3.8-1,.2-.3.2-.4-.2-.4-.2-.4-.1-.4v-.8l-.2-.5-.4-.1-.4-.1-.4.1-1.2-.2-.4-.2-.2-.3-.1-.4-.2-1.2-.5-1.3-.1-.4v-.4l.6-.9.9-.9.6-.9.3-.3.3-.3v-.3l.3-.3.1-.2.3-.2.3-.1,1.4-.3.4-.2.4-.5.4-.9.5-.9.2-.2.2-.2.3-.1.8-.2.3-.2.3-.4.4-.6.6-.4.3-.2.3-.3.2-.3.2-.4-.1-1.8-.1-.4-.1-.2-.4-.3-.5-.5-.1-.3.2-.3.2-.4.3-.3.4-.2.3-.1.3-.1.2-.2.3-.6.2-.3.2-.2.5-.2.2-.2.2-.3.1-.6v-.8l.5-1.2.7-2.2v-.3l.4-.3.2-.5.1-.6.2-1.1.1-.6-.1-.6-.1-.3v-.5l.2-.6.1-.4.3-1.7.1-.2.2-.3.3-.5.3-1,.1-.4.1-1v-.7l-.1-.2.2-.7.1-.6v-1l-.2-2.3-.3-1.4-.3-.6-.2-.4-.2-.2-.1-.1-.2-.2-.1-.4v-.6l-.1-.4-.2-.5-.1-.4.1-.4.3-.2h.3l.1-.1h.2l.1-.2.1-.1.1-.3-.1-.6.1-.5.1-.3.2-.2.2-.5.2-.4.2-.3.1-.3.1-.2.1-.4v-.7l.1-.3.1-.4v-.2l-.1-.3-.5-.2-.8-.2-.4-.1-.3-.3-.3-.5-.6-1.5-.8-1.5-.5-.4.1-.1.1-.9-.3-.8-.5-.7-.6-.2.3-.5.1-.3.3-.2-.4-.6.6-1.6-.1-1.1.2-.8.9-.4,1.1-.1.7.1,1.4.6.7.1.8-.1.7.2,1.7,1,1.2.5.4.2.6.7.5.2.3-.2.4-.4.4-.1.4.1.6.6.3.2,3.5.2.8.3.8.6.3.8.4.9.4.7.7.5.4.1,1.4-.5,4.9.1,1,.2-.2.8.2.2h.4l.3.2.7,1.3.8,1.1.7,1.9.6.7-.2.4-.2.5-.1.5.4.3v.2l-.7,1.1-.1.7.9-.2.7.7.1.8-.8.6-.2.1-.7.3,1.2,1.8v.7l.4.4,2.5.3.3-.1.5-.2.2-.3.2-.4.2-.2,1.2-.2,1.4-.1,1.3-.6.4-1.5.2-.1.1-.1h.1l.1.2.5.2h.5l.4-.2.4-.5.1.1.1.1v.3l.8.3,2.5.4.8.3,2.3,1.6.9.2.8.1.6.2.6.9.5,2.1.4.8.8.7.5.4h.5l1.1-.1.6-.1.5-.4.7-.7.9-.7.2-.3.3-.8.2-.3.7-.3,1.9.2,2.5-.8,1.2-.1,1.2.6.5.4,2.3,1.1,1.3.3h.6l.3.9.6.9.8.6.8.2.8.5.4.1h.5l.2-.3.4-.9.3-.2.8-.1,1.8.7.9.1h1.1v-.3l-.5-.5-.4-1.1.3-.4,1.7-1.4.7-.4h.9l1.5.2.9-.1.6-.4,1.3-1.2.6-.4.7-.1.6.1.7-.2,1.4-1,1.3.5.6-.4h.5l1.2.1.2.1.3.6.3.5.4.4.5.3.8.3,1,.1,1.1-.1,1.7-.3v.8l-.4,1.1.2.9v.9l.5.8.7.6.9-.2h.9l.6.7h.2l.5-.4.5.1,1,.7-1,1.9-.1.5-.2.8-.3.4-.3.3-.3.6-.7-.3-1.5.3-1.2-.5-.4-.6-.7.2-.9.9-.5,1.2v1.9l-.1,1.3.3,1,.6.7,1.4.9.8,1,.9,1.3-.1.7-.5.5-.2.8.3.8.2,1.1v.4l.2.3.7.6.3.4-.2,1.1-1,1.7-.5,1.4-.7.7-1.1,1.7-1.3-.2-1.6,1.2-.4,1.5-1.1.6-3.6,2.9-.8,1.2-1.3.3-.9.2-1.1.3-.4.1-.2.1-.6.6-.2.2-.1.4-.4.1h-.5l-.5,1.3-5.1,2.1-8.2,3.8-.8.9-2.4,1.6-3,1.3-1.2.9-1.1,1.5-1.9,3.5-1.2,1.6-1.3,1.2-2.8,1.6-1.7.4-2.7.3-2.7.7-.9.5-.4.1h-1.3l-7.9,2.4-3.5.3-10.1,3.8-2.9.6-.3.2-.7,1.3-.1.4-.2.3-.5.3-.9-.6-.3-.1h-1.8l-1.7.3-1.6.7-1,.7-4.6,4.5-2.2,3-4.4,4.5-.8,1.5,1.1.7,1.1.4h.5l.2-.3-.1-.4-.6-.4.7.1.6.3.4.4,1,1.2,1,.9h.5l.8.2v1.1l-.6,1.2-.4.5-2.6.8-1.1,1-2,3.1-1.2,1-1.2.4-1.3.2-.9-1.5,1.9-.3.9.7,1.4-.8,1.4-2.4-.8-.1-1.2.1-3.3,1.1-.8.5-.7.8-.6.9-1,2.5h0ZM594.45,74.45l-.1-.6.5-1,.4-.2.5.5.4,1,.4.7-.1.1-.4.1h-.1l-1-.1-.5-.5h0Z" fill="#FFFFFF" id="ESCT" stroke="#000000" stroke-linecap="round" stroke-linejoin="round" stroke-width="0.5"/></a>
<a target="_blank" xlink:href="https://rosschris.com/Aragon"><path d="M440.95,99.05h.7v.1l.5.3.3-.1,1.6.1.3.2.4.2.3.3.5.6.3.3.3.2.8.3.4.1h.4l.7-.4.4-.1.7.3.7.3.3.2.3.3.5.7.2.2.7.5.7.3h.7l.8-.1.6-.4.2-.1h.6l1.2.4h.4l.7.2.3.1.2-.1.2-.3.3-.5.3-.4.5-.6.1-.5.2-.4.6-1.3.7-1.2.8-1.1.3-.6.1-.9-.1-.5-.3-.2h-.4l-.4-.1-.3-.2-.3-.3-.2-.4-.1-.4-.1-.3-.2-.3-.6-.6-.2-.3-.1-.4v-2.3l-.1-.4-.1-.4-.2-.4-.3-.3-.1-.4-.1-.4v-.5l.2-.5.3-.7.2-.6.2-.8v-.4l.2-.6.2-.7.8-1.3,1.2-1.4.2-.5-.1-.3-.2-.3-.3-.2-.2-.3v-.4l.1-.6.2-1,.9-1.4,1.1-1,.6-1,.2-.5v-.4l-.1-.2-.2-.4-.1-.3v-.8l.2-.4.3-.5.2-.4.3-.2.5-.1.7.3.4-.1.3-.2.3-.2v-.5l.3-.5.5-.5,1-.6.2-.3.1-.2-.7-.3-.1-.1.3-.1.4-.2v-.6l.1-.4.3-.3,2.4-.3.4.1h.8l.5-.3.1-.3.2-.7.1-.4v-.4l.1-.4.3-.3,1.9-.5.5-.3.5-.3,1.1-1.1.8-.3.3-.7.3-.2.5-.3.4-.3.4-1,.3-1.6-.1-.9.1-.4.2-.5,1.1-1.5.1-.3v-.4l.1-.4.3-.5,1.4-.7h1l.2.4v.4l-.1.2-.1.3.2.5.4.4.4.1.4-.1.4.1,1.4.9.8.6,1.5,2.1.1.2-.1.2v.2l.3.2h.8l.2.4v.6l.4.3h.3l.7-.5.3-.1.1-1.3h1l2.2,1,1.2-.1,1-.6,1.9-1.5.4.3.3-.1.3-.4.2-.5.6.5.1.1,2.4,1.4.4,1.1,1.1.1,1.2-.3.7-.3-.1.9.3,1,.5.8.6.5.3.3v.4l.1.4.5.2.5.1.3.3.1.2.3.3,1.6.6,1.4-.1,3.1-1.2,2.5-.3.7-.6.7-.1,2.1.6.7.3.8,1.6.7.7.6-.1,1.1-1.6.7-.7.8-.3,1.1,1,.1.2-.1.2.1.2.2.2.8.2.8-.1,1.5-.4.7.3,5-.1,1.4.2.6-.2.2-.5.5.4.8,1.5.6,1.5.3.5.3.3.4.1.8.2.5.2.1.3v.2l-.1.4-.1.3v.7l-.1.4-.1.2-.1.3-.2.3-.2.4-.2.5-.2.2-.1.3-.1.5.1.6-.1.3-.1.1-.1.2h-.2l-.1.1h-.3l-.3.2-.1.4.1.4.2.5.1.4v.6l.1.4.2.2.1.1.2.2.2.4.3.6.3,1.4.2,2.3v1l-.1.6-.2.7.1.2v.7l-.1,1-.1.4-.3,1-.3.5-.2.3-.1.2-.3,1.7-.1.4-.2.6v.5l.1.3.1.6-.1.6-.2,1.1-.1.6-.2.5-.4.3v.3l-.7,2.2-.5,1.2v.8l-.1.6-.2.3-.2.2-.5.2-.2.2-.2.3-.3.6-.2.2-.3.1-.3.1-.4.2-.3.3-.2.4-.2.3.1.3.5.5.4.3.1.2.1.4.1,1.8-.2.4-.2.3-.3.3-.3.2-.6.4-.4.6-.3.4-.3.2-.8.2-.3.1-.2.2-.2.2-.5.9-.4.9-.4.5-.4.2-1.4.3-.3.1-.3.2-.1.2-.3.3v.3l-.3.3-.3.3-.6.9-.9.9-.6.9v.4l.1.4.5,1.3.2,1.2.1.4.2.3.4.2,1.2.2.4-.1.4.1.4.1.2.5v.8l.1.4.2.4.2.4-.2.4-.2.3-.8,1-.2.3-.1.3-.1.2v.1l-.1.1-.1.1-.3.2-1.2.4-.4.3-.1.3.1,1.1-.1,1-.4,1.5-.6.9.2,1,.3.1.7.3.5.6.4.7.1,1-1,2.2.1,1.3.2,1.2-.1.1-.4.3-.5.2-.6.4-.3.4-.2.4-.1.4v.5l-.3,1-.2.3-.3.3-.4.2-.7.2-.3.2-.1.3-.3.2-.3.1h-.4l-.4.3-.2.3-.1.4-.1.4v.4l.2.4.1.3.2.7.4,1.5.7.5.6.3.6.5.6,1.9-.1,1.3-.2.4-.2.5-.5.7-.1.4-.1.4-.2.4-.1.4-.1.6.3.8v.4l.1.5.1.5.4.9v.4l-.2.4-.2.4-.8.9-.3.7-.3.3-2.2,1.3-.2.2.2.7-1.1.4-1.5.1-.6.1-.5.1-.3.2-.4.3-.3.3-.4.3h-.4l-.3-.2v-.7l-.2-.4-.2-.3-.7-.2-2,.2-1.1-.2-1.8-1.2-.6-.6-.3-.3-.4-.3-.6-.2h-.7l-.4.2-.8.9-.2.4-.2.3-.2.8v1.6l-.2.3-2.1,1.1-.3.3-.5.3h-.3l-.7-.5-.6-.1-.5.1-.5.3-.3.3-.1.4.1.4v1.2l.1.3.3.2.4.1.3.1.3.2.4.1h.3l.7-.2h.3l.3.1-.1.8-.1.4v.4l.1.7.1.4v1.2l-.1.3-.1.4v.3l.1.3.6.4v.1l.2.6.1.3v.4l-.2.2-1.8.7-.4.4-.3.4.1.4.1.4.2.3.7.5.2.2.5.7.3.3.1.4v.6l-.3.3-1.6,1.1-.3.4-.7,1-.5.5-.8.7-.1.3.1.4v.4l-.1.6-.2.4-.4.3-1.4.7-.4.1h-.8l-.3.1-.4.1-.3.1h-.2l-.6-.2-.4-.2-.3-.2h-.4l-.3.3v1.1l-.1.4v.3l-.1.8-.3.5-.2.4-.1.8-.2.5-.3.5-.6.4-.6.7-.2.4-.1.4.1.4.2.7-.1.3-2.8,1.5-1.5.2h-.7l-.3-.1-.3.1-.2.3-.1.8-.2.5-.4.5h-.1l-.5.4-.4.1-1,.5-.2.4-.2.3-.1.8-.1.4.2.3v.3l.1.8.4.7.2.2.4.2.4.6.3.5-2.3,1.1-.5.2h-.7l-.4-.1-.4-.3-.2-.3-.1-.4.1-.4v-.4l-.1-.3-.2-.3-.1-.3v-.4l.1-.4.1-.3.1-.4-.2-.5-.5-.7-2-.9-.7-.2-.5-.1-.7.1-1.4-.1-1,.2-.8.3h-.3l-1,.3-.6-.4-.7-2.1.9-.2,1.9-1,.3-.2.3-.4.1-.3-.1-.4-.1-.3-.5-.6-1.3-1.1-1.1-.7-2.5-.3-.8-.4-.3-.3-.2-.3v-.5l-.2-.2-.3-.2-.3-.2-.2-.4-.2-.3-.4-.7-.2-.8-.2-.2-.2-.1-.5.4-.3.4-.1.5.2.8-.1.4-.2.3-.7.4-.9.2-1.2-.1-2.2-.5.3-.5.1-.6.1-.4v-.4l-.1-.3-.2-.3-1,.2h-.5l-.6-.3-.5-.1h-.5l-.5.3-.3-.1-.6-.4-4.2-4.1-1-.6-.6-.1-.4.2-.2.2-.2-.1-.1-.7.2-.4v-.6l-.2-.7-1.6-2.3-.7-.7-1.2-.5.5-.7.2-.1.3-.2,1.3-2.1.4-.4.4-.3.7-.4.3-.3.3-.4v-2.6l.7-1.9.2-.4.2-.2,1.1.3h.3l.7.3.3.2.3.2.4.1.3-.1.7-.4.4-.2.2-.4.2-.3-.2-1,.1-.6.2-.9.3-.7.1-.4.1-1.1-.2-.6-.2-.7-.3-.5-.2-.4.1-.6v-.4l.2-.5.4-.8.1-.5-.1-1.3v-.4l-.2-.4-.3-.5-1.1-.7-.5-.6-.3-.4-.3-.7-.3-.8.1-1.8.1-.4-.5-1.1-1.4-1.2-.2-.3-.4-.5-.3-.3-2.2-1.9-.5-.7-.3-.3-.1-.4-.2-.3-.3-.4-2-1.7-1.3-.8-1.7-1.2-1-.5-.5-.3-.4-.4-.2-.4-1.1-.3-3.3,1-.3-.4-.9-.7-.4-.2-.4-.1h-.3l-.8-.1-.3-.1-.3-.3-.2-.4-.1-2-.3-2-.1-.4-.1-.3-.4-.7.1-1.8.2-1,.3-.4.2-.2.3-.1.3-.2.2-.3.3-.4.2-1.2.1-.5v-.9l.2-.4.2-.3.4-.3,1.2.2.7.2.3.3.2.3.1.4v.4l-.1.4v.4l.1.3.3.2h.4l.3-.1.7-.6.7-.3.4-.2.4-.1.3-.1.2-.2-.2-2.3-.2-.5-.2-.4-.3-.3-.3-.6-.1-.9.1-1.9-.2-1.5-.3-.2-.1-.4v-.3l.1-.4.3-.4.3-.1.2-.2h.4l.3.1.8.3.3-.1.3-.3.2-.3.7-.9.8-.4.4-.3.4-.5.4-.2.4-.1h.4l.4-.2.3-.5.4-.9.2-.5.2-.5.1-.7-.4-.5-.3-.2-.2-.3-.1-.4-.3-.7-.7-1-.3-.4-.1-.4.1-.5.4-.8.3-.3.2-.4.1-.4.1-.5v-.4l-.9-1.2-.6-1.7-.2-2.7.4-1.3.1-.2-.3-1h0ZM467.75,77.15l.5-.1.5-.4.3-.8v-.6l-.3-.2-.3.3-.6.3-.3.3-.1.7.3.5h0ZM472.35,75.55l.3-.3v-.5l-.3-.2-.4-.5-.4-.2v-.6l-.1-.5h-.6l-.5.5-.1.4-.2.6-.1.5.5.4.6.1.8.2.5.1Z" fill="#FFFFFF" id="ESAR" stroke="#000000" stroke-linecap="round" stroke-linejoin="round" stroke-width="0.5"/></a>
<a target="_blank" xlink:href="https://rosschris.com/Extremadura"><path d="M238.05,191.45l.5.4.8.8.3.3.5.2.4.1h.4l.4-.2h.3l.3.1.8.1,1.3-.7.4-.1.7.5h.4l.5-.2.4-.2.5-.2,2.8-.5.6-.3.4-.3.2-.2.1-.4v-.4l-.2-.7v-.4l.2-.3.3-.3,1.2-1,.4-.2.8-.3.3-.2,1.5-.6.8-.9.4-.2.4-.2,1.2-.2.4-.3.2-.4.1-.3.2-.4.3-.2.4-.3.4-.3.7-.1.5-.2.5-.2,1.4-1,.4-.2.5-.1.7.2,1.4.8.4.4.6.7.4.2.8.2.1.3v.3l.3.3.5.3.9.3.2.3v.2l-.3.4v.2l-.1.2-.2.2v.2l-.1.4-.2.2-.2.2.1.2.5.3,1.4.6.9.5.6.5.3.4.6.4,1.4.7,1.1.4.5.1.4-.2.2-.3.2-.4.2-.4.1-.3.1-.4.3-.2.3-.2,1.4-.3.8-.5.4-.1.3.1.4.5.2.4v.5l-.1.3-.3.7.1.3.2.2.9.1,1.4-.5,1.6.6,1.2.9,1.2,1.1,1,1.3,1,.7,1.6.5,1.5-.1h.3l.3-.1.3-.2.6-.5.3-.4,1.4-1.1,2-.6.7-.1.2.3v.3l-.4,1-.1.4-.1.5.2,2.3.3.7.2.4.1.4.7,1.1-1.2.6-.1.2-.2.4-.2,1.3v.6l.1.5-.3,2.8-.6,3.9v1.4l.2.7.3-.2.8-.1,1.1-.1.4.1.3.1.3.3.3.3.2.3.2.3v.4l-.1.3-.5.7-.2.4-.1.7v.6l-.1.5-.1,1.1.1.5.2.2,1.4.3.5.1.3-.1.2-.2.5-.7.3-.5.8-.7.3-.1.8-.1h.3l.3.2.1.4.2.7v.5l-.2.8.1.3.5.7.3.4.1.5-.1.4-.1.3-.2.7-.1,1.2-.1.3-.1.4-.1.3-.5.6-.1.4-.3.3-.2.4-.4.6-.1.3.1.3.3.3.3.3.6.4.3.2,1.5,2,.9.9.6.5.3.4.6.4.7.1.3.2.6,1,1.2,1.4.4.6.5.6.2.2.4.3.5.5,2.6,1.3,1-.6.2-.1.3-.1.3-.1.9-.5,1.4-.4.5-.2.5-.7,2-1.1.5-.6.6,1.7-.2.9-.6,1.2-.6,1.7-.3.5-.4.3-.5.1-.3.2-.3.4v.5l.1.5.8,1.9.7,1.3v.2l.3.3.4.4,1.2,1.4.5.9h-.6l-.2-.1-1.4-.7-.3-.2-.3-.1-.7-.2-.7.2h-.8l-.7-.2h-.3l-.3.3-.3.3-.2.3-.6.6-.3.3-.1.3-.2.6-.5,2.2v.7l.2.5.2.3.7.4.3.3.1.5-.2.3-.9.6-.4.1-.4.1-.7-.3-1-.6-.4-.1-.3-.1-.4.1-.3.3v.4l.1.3.2.4v.4l.1.4.2.2.2.2.1.1h.1v.8l.1.3.1.4.2.3.2.3,1.4.4.3.1,1.1.2.2.3.2.6-.2.7-.2,1.2-.2.3h-.3l-1.1-.2-.4.1-.4.1-.3.2-.3.3-.3.3-.6,1.1-.2.5-1,3.7-.4,1-.4.5-.3.2h-.4l-.5.1-.6.3-1.1.1-.7.3-3.2.1-.4.2-.1.3.1.4.1.4-.1.5-.2.4-.1.2-.1.3-1.2.4-1.9,1.2-1.3,1.2-.2.2-.2.2-.1.3-.1.2v.2l-.1.3h-.2l-.2.1-.5-.2h-.9l-.5.1-.7.7-.2.3-.4.5-.2.3-.2.3-.1.3v.3l-.2.4-.3.5-1.2.8-.6.5-.2.4-.5.7-.3.2-.6.2-1.8,1-.5.5-.3.3-.3,1.1v.5l.1.3.4.4.1.2v.5l-.1.6-.1.3v.7l.1.2.1.2.3.2.1.2.2.3.1.2.1.6.1.2.1.3.2.3.3.7.1.2v.7l.1.4v.4l.1.4v.4l-.1.7-.3.3-.1.4-.2.7v.7l-.2.3-1.7,1.4-1.7-.1-.8.5-.3.3-.9.9-.9.6-.7.1h-.4l-.3-.3-.2-1.1v-.7l.2-.2.3-.2.4-.1.6-.4.2-.3-.1-.3-.1-.3-.7-.7-.5-.5-.5-.1-2.7.4-1.3.5-.3.2-.3.4-.3.6-.3.3-.3.2-1,.6-.4.4-.2.3-.2.4-.1.4v.3l.1.4.2.3.2.3v.4l-.1.3-.7.9-.2.3v.3l-.1.3-.2.4-.4.5-.4.3-.6.2-1.7.3-.8.1-3,.6-1,.5-1.3,1-.5.5-.7-.6-5.3-2.2-1-.3-.2-.3v-.4l-.2-.4-.3-.5-1.6-1.2-.5-.1h-.4l-.3.1-.3.2-.2.3-.2.3-.6.5-.2.2-.1.3-.1.2h-.6l-1-.3-1.9-.1-.3-.3-.1-.3.1-.4-.1-.4-.1-.3-.8-1.1-.6-.5-.5-.2-.6-.1-1.3-.1-1,.1h-1.9l-1.1-.4-.5-.2-.5-.2-.4-.2-.1-.3.1-.4.2-.6.2-.4.2-.3.2-.3-.1-.4-.2-.4-5.5-1.8-.6.5-.6-.4-1.1.1-1.1.3h-.1l-.2-.1-.5.7-1,.5-1,.2h-.6l-.6-.5-.4-.4-1.6-4.2-.2-.2-.7-.5-.3-.3-.1-.3-.3-.7-.2-.3-4.2-5.5-1.2-.9-.5-.3.5-.6.4-.5.1-.6-.5-.7.4-.6.7-2.6,1.7-2.5.2-.7-.1-.4-.2-.2-.3-.1-.2-.4v-.4l-.1-.5.1-1.2.3-1.7.1-.4.4-.7v-.2l1.8-1.5.6-.5.6-.2.7-.6.6-.6.2-.5.4-.3,1.8-.4.7-.4.5-.5.5-.4.3-.2v-.7l.2-.8-.6-1.1.9-.7.9-1.3,1.3-2.6.4-.5.2-.5v-.5l-.5-.4.3-.9-.3-1-.5-.9-.7-.7-.9-.6-1.1-.3-1,.1-1,.6-.5.2-.6-.1-.6-.3-.4-.4-.1-.5.5-1,.1-.5-.5-1-1-.4-1.1-.3-1-.6-.6-.8-.3-1.1.1-1.1.5-.9-2-2.5-.7-.6-.3-.6-.2-1.1v-1.2l.2-.7.3-.8.2-1.2v-1.1l-.3-.5-1.7-.5-.8-.4-.7-.5-.3-1.1-.4-.5-1.4-.7-.6-.6-1.2-1.6-.8-.7-1.3-3.7-.3-.7v-.1l8.7.4.5-.2.7-.3.7-.1h1.7l.6-.2.9.6h1.3l5.9-.7.6-.3.5-1.1-.1-.4-.1-.3v-.5l.2-.5.5-.9.2-.5-.1-.4-.2-.5v-.6l.3-.7.3-.3.9-.3.4-.3,1-1.5.1-.5.1-.9v-.7l-.1-.6v-.2l.1-.3.4-.3.1-.2.3-1.3.1-.5-.1-.5.2-.6.7-1.2-1.6-2.9-.9-1.1-.5-.9-.5-.4-.4-.2-1.1-.1-.5-.2-.4-.7-.3-1.8-.4-.8.4-.6.4-1.2.3-.5.8-.3,1.7-1.2h.5l.3-.1.8.1.8-.1.7-.5.1-.3v-.4h0Z" fill="#FFFFFF" id="ESEX" stroke="#000000" stroke-linecap="round" stroke-linejoin="round" stroke-width="0.5"/></a>
<a target="_blank" xlink:href="https://rosschris.com/Galicia"><path d="M231.15,17.45l-.1.4-.1.1-1.2,1.1-.6.9-.4.4-.3.2h-.6l-.4-.1h-.4l-.5.1-.3.3-.1.4-.1,1.1.1.3.1.3.6.2h.7l.2.2.2.3v1.4l.2.6.2.6.3.4.5.6.4.1.3.2.3.3.3,2.4.3.5.2.4.3.3.9.8h.3l.3.1.4.6.7.3.3.1.3.2v.3l-.1.3-.2.8-.1.6.1.4.3.4.2.3.3.2.4.1.6-.3.8-.4.4-.2.3-.2.2-.3v-.3l.2-.4.3-.2h.3l.3.3.4.6.6,1,.2.6-.1.5-1.5,1.4-.4.2-1.4.6h-.8l-.3.1-.2.1-.2.3-.1.3-.1.4-.1.5-.3.4-.3.2-.3.1-.3.4-.1.6.2.6.3.6.4.2.2-.1.2-.1v-.1l.1-.1v-1.2l.1-.1h.3l.8,1.2.1.2.4.3.3.1.4.1.7-.1.4.2.9.9.4.5.1.6.2,2.1-.4.5v.5l-.2.4-.7.8-.1.7.4,1.3v.5l-.2.6-.2.5-1.3,1.6-.9,1.2-.4.4-.5.2h-.3l-.3-.1-.4.1-1,.9-1.1.6-.2.1-.5.7-.2.4v.5l.1.7.2.5.3.4.3.3.1.4v.3l-.4.3-.3.3-.3.3-.2.5.1,1.5-.1.6-.7,1.6-.1.4.1,1.1-.4,1,1.8.1,1.8.4.4-.1.1-.1.1-.2.2-.1.4-.3.8-.2h.5l.4.2.5.4.2.1,2.9.8.5,1.1-.1.5-.1.9-.1.5-.2.4-.3.4-.1.2-.3.1,2,1.7,1.3.9.7.7.1.5v.4l-.1.4.1.8-.1.3-.1.4-.1.4-.5.6-.5,1-.6.5-.6.8-.1.4-.2.7-.2.1-.8-.3h-.6l-.8.2-.7.4-.6.6-1.4,1.4-.3.5-.2.3-.4,1.5-.3.3-.4.2-.3.2-.3.3-1,1.5-.5.5-.2.5.1.3.3.3.3.2.3.1h.8l.3.2.4.6v.2l.1.2-.7,1.7-.2.4v.4l.2.5-.1.6-.3-.2-1,.7-1.4.6-1.3-.6-1.2-1-1.3-.9-.6.1-.7.4-.6.5-.3.3-.1.8.3,1.7-.1.9-.5.7-.4.5-1.3.9-2.9,1-.7.1-1.5-.1-.6.1-.5.4-1,1.1-.5.5-.2-.9-.4-.9-.5-.7-.6-.2-.3-.1-.7-.4h-.3l-.3.3v.3l-.1.3-.2.4-.6.5-.8.3-.9.1-.7-.1-.7-.3v-.5l.6-1.8h-2.1l-.7-.4-1.2-.8-.6-.2-1.1.6-2.5.6h-1.1l-.5.1-.1.3-.2.4-.3.3h-1.2l-.3-1.6-.1-1.5-.8.3-.2.7-.2.9-.4.7h-.7l-.7-.1-.6.3-.5.5-.4.6-1.3,1.4h-.1l-1.7.6-3.5-.3v-.1l.2-1.3-.1-.7-.3-.4-1.4-.6-.5-1,.1-1,.4-.9,1.5-2.4,1.2-1.1,1.2-.8.6-.5.4-.7.1-1-.3-.8-.6-.6-.8-.3-.8.1-.7.3-.7.2-.5-.4-.1-.9.1-2.3-.3-.9-.4-.5-1.2.9-.8.3h-.7l-.3.1-.3.2-1.1,1-.6.3-6.3,1-.7.3-1.4,1-.8.3h-1.4l-.8.2-.6.5-.4.6-.4,1.1-.3.6-.9.5-1,.3-.9.5-.5.3-.4.9-.6.9-.8.6-.8.2-.7.4-.6.8-.7.6-.6-.2.1-.8-.8-10.6.1-.9.4-.4h1.6l.8-.2.3-.5-.2-.5-.8-.3-.1-.4.2-.2,1-.5.1-.3.1-.5.2-.5.4-.2.2-.2.8-.9,2.1-1.7.5-.2.2-.1,1.3-1.2.7-.3.9-.6.2-.3.2-.4v-1.7l-.1-.4h-.1l-.4.1-.6.6-.4,1-.6,1-1,.4-.8.2-2.2,1-.4.5-.5.1-2.1-.2-.8.3.2-.7.4-1.2v-.8h.3l.5.9.3-.4v-1.8l-.1-.4-.1-.3.2-.1.5-.1,1.5.3.2-.1.3-.7,1.5-1.8.7-.7,1.3-.9.6-.5.3-.8-.4.2-.3-.1-.4-.1h-.4l-.1.1-.1.1-.9.5-1,.8-.5.4-.9.2-1.3.1-1.3-.2-1-.6-.3-.6-.2-1-.3-.6-.5-.3-1.4-.2-.3-.2.3-.6.7-.4.9-.4.6-.1.5.1.3.5v.5l-.5.4.3.2.6.2.6.1.4-.1.1-.6-.1-.7v-.5l.5-.5-.5-1.9v-.9l.1-.8.4-.7.5-.4.5-.2.5-.7,1.5-3.3.3-1.3h-.2l-.3.9-.4.9-.5.6-.7.3-.8-.3-.5-.7-.4-.9-.5-.4-.7,1.1v.7l.4.5-.9,1.2-.5.3-.6-.4.2-.6-.5.3-1.4,1,.6.7-.5.4-1.4.4-.1.3-.3,1.3-.4.1-.3.3-.6.7-.6-.7-.1-1-.2-.9-.9-.4-.6-.6.2-1.3.6-1.4.5-.9v-.6l.1-.8.3-1.1.4-.7.2-.4.3-.4.5-.1.1-.2,1.2-.6,1-1.5.6-.5,1-.3.3-.4.2-.8-.1-.9-.8-.5-.2,1.3-.6.8-.9.4-1.1.1-2.1-.3-.8.2.1.9-.9,1-.5.3-.8-.2-.5-.4-.3-.7-.2-.9-.4-1h.5l.4-.2.3-.4.2-.5-.3-.7-.6-.4-.7-.3-.1-.4-.2-.7v-.4l.1-.2.3-.4.1-.3.1-.5-.1-.4-.2-.2-.7-.1-.4-.2-.6-1-.5-.2v.3l.2.6-.2.3-.4.1h-.2l-.2-.8h-.4l-.4.3-.4.3-.3.5-.4,1.1-.3.5-.2-.1-.4-1.3-.3-.4v-.3l.2-.5.9-2.3v-.4l.1-.4.1-.5.2-.3.1-.5-.2-.3-.6-.5-.3-1.3.3-.3h.6l.2-.5.3-1,.4-.5.5-.3.2-.7.6.6.5.1.5-.2.6-.5.2-.3.1-.2.2-.3.4-.3.3-.2.3-.1h.7v-.4l-.7.3-.9.2-.6-.1v-.4l-1.3.6-.5-.1-.4-.9,1.9-1.9,1.3-.7,1.5.7h.7l.7-.2.6-.2.5-.4.5-.4.4-.7.2-.8h.3l.8.6h1l1.1-.5.7-.5-.9.1-.4-.4-.6-1.2h-.2l-.5-.3-.3-.3.3-.2h.4l1.6-.7,1.7-1.2,1.3-.3.3-.4.3-.3.4-.1.6.3,1.2,1.3.7.3.8.1,1.5.5.8.1,1.1-.4,1.4-.8,1.5-.5,1.4.6,2.1-1,.4-.3.1-.5.3-.5.4-.3.9-.2.1-.2.1-.2.3-.2,2.2-.6.1.7.4.6.9.8.5-.7.1-.5-.1-1.3.4-.7.8.1,1.2.8.6.2.2.5.2.6.3.6.9.9.4.6.3.8.3-.9v-.8l-.3-1.7v-.9l.2-.5.4-.4.8-.5-.8-.4-.7-.1-1.4.1-.7-.2-1-1.1-.7-.2.8-.6,4.1-.6.3-.1.2-.2.2-.4v-.4l-.2-.1-1,.5-2.4.4.1-.2.1-.1.3-.1-.1-.2-.4-.2-.5.7-.8.3-1.8.1.3-.8.2-1.2.2-.8.4.2.6-.8-.4-.3-.3-.4-.2-.6v-.6h.2l.7.1.3-.1.9.1,1.2-.6,5.9-4.5.1.6.4.4h.4l.5-.2h-.6v-.4l.2-.1.2-.2.2-.1-.8-.6-.1-.6.2-.6.1-.7.3-.4.6-.2h1.3l1.2-.3,1.2-.7,1-.9.8-1.1,1.1.1.5.8.3,1,.6.8v.3l-.3-.1-.4-.1-.2-.1-.3.5-.1.5-.1.4.3.4-.4.4-.2-.1-.3-.3-.2.3-.1.1-.2.1v.3l2,.2.4-.5-.8-1.2.5-.3h.5l1,.3-.1-.2-.1-.4-.1-.2.6-.6.7-.6.8-.5,1.6-.4.9-.6.7-.8.2-.9.2-.1.3.1.3.4.1.6-.2.4-.9,1.1-.1.8.2.3.3-.1.4-.2.1-.1-.1-.3.1-.3.3-.1h.3l.7-.4.1.8,1,1.9-.1.9.3-.1.5-.7.4-.8.5.2.3-.3.4-.5.6-.2,1.6.2.5.2,3.3,1.9,1.6.6,2.6,4.5,1.9,1-.1.2-.1.2-.1.2-.3.1v.4l.6.3.3-.2.3-.3.5-.2h.6l.8.3,1.5.2,2.5-.1.7-.4.7.4.7.1.5.4v1.1l-.3.6-.4.7-.2.7.3.7h0Z" fill="#FFFFFF" id="ESGA" stroke="#000000" stroke-linecap="round" stroke-linejoin="round" stroke-width="0.5"/></a>
<a target="_blank" xlink:href="https://rosschris.com/Castile_and_Leon"><path d="M238.05,191.45l.1-.5.1-.4.3-.3,1.7-1.3.4-.3.7-1.3-1.4-1.3-.9-1.5-.3-1.8.8-1.8.9-1.4.1-.6-.2-.9-.4-.8-.5-.4-.3-.6-.1-.9.3-.8.9-1.8.3-.9v-.6l-.1-1-.3-1.7-.5-1.8-.1-.7v-1.6l.2-.3v-.3l-.1-.6-.1-.3.1-1.4.6-.2.2-.6-.2-.8-.4-.3-.7-.1-.3-.5-.3-1.1-.9-2.2-.6-.9-1.2-1.4-.4-.6-.1-.7.4-.7.2-1,.8-.4,2.5.2,1.1-.1.6-.6,1.6-2.3.3-1-.1-1.3.2-.4.5-.7,1.4-1.2.2-.5.3-.8,1.5-2.1.4-.6.8-.1h2.6l.4-.3,2.3-1,.6-.5.8-.6,1.3-1.3,1.2-2.1h.2l.5.1.1-.1.1-.3.1-.4v-.3h-.2l.6-.5.5-.2,1.3-.1v-.4l1.5-2.5.1-.4-.2-.3v-.5l.3-.5,1-1.1,1.9-2.9-.4-.5-.5-.8-1.7-1.8-1.8-1.2-2-.7-3.3-.7h-.5l-.3.2-.3.4-.5.4-.7.3-.4.1-1.1-.4-.6-.9-.2-1.1-.1-1-.2-.5-.2-.5-.2-.4.3-.5.3-.5.1-.5,1-4.4.5-1-1.1-.4-.7-.1-.3-.4.3-2.3-.1-.9-.6-.7-1-.4-.5,1.2-1.4.4-2.8.1-1.3-.3-1.4-2.3-1.3-.3-.2,1.7-1,.6-2.5.2-1.1-.3-1-.7-.6-.3.1-.6-.2-.5v-.4l.2-.4.7-1.7-.1-.2v-.2l-.4-.6-.3-.2h-.8l-.3-.1-.3-.2-.3-.3-.1-.3.2-.5.5-.5,1-1.5.3-.3.3-.2.4-.2.3-.3.4-1.5.2-.3.3-.5,1.4-1.4.6-.6.7-.4.8-.2h.6l.8.3.2-.1.2-.7.1-.4.6-.8.6-.5.5-1,.5-.6.1-.4.1-.4.1-.3-.1-.8.1-.4v-.4l-.1-.5-.7-.7-1.3-.9-2-1.7.3-.1.1-.2.3-.4.2-.4.1-.5.1-.9.1-.5-.5-1.1-2.9-.8-.2-.1-.5-.4-.4-.2h-.5l-.8.2-.4.3-.2.1-.1.2-.1.1-.4.1-1.8-.4-1.8-.1.4-1-.1-1.1.1-.4.7-1.6.1-.6-.1-1.5.2-.5.3-.3.3-.3.4-.3v-.3l-.1-.4-.3-.3-.3-.4-.2-.5-.1-.7v-.5l.2-.4.5-.7.2-.1,1.1-.6,1-.9.4-.1.3.1h.3l.5-.2.4-.4.9-1.2,1.3-1.6.2-.5.2-.6v-.5l-.4-1.3.1-.7.7-.8.2-.4v-.5l.4-.5,1.3.2.8.4.2.5.3.1.5-.3.3-.3.3-.3.3-.4.4-.2.7-.3.8-.1h1.9l.5.1.3.1.3.2,1.9.2.4-.1,1.4-.6.6-.1,2.1-1.1.2-.4v-.3l-.2-.3-.7-.2-.4-.3-.2-.3.1-.3.2-.2h1.1l.9-.3.3-.2.1-.2v-.3l.1-.3.2-.4.2-.3.2-.4.2-.4,1.1-.5.7.2.4.3.3.3.8.2h.6l1.7.9.8.2.3-.1.2-.2.1-.8.3-.3.5-.1,1,.2,1.1.4.5.2.5-.1.8-.4.3-.3.1-.5.1-.4.1-.3.4-.1,2,.4h.5l1.2-.3.4.3.2.3.2.8.1.4.2.4.2.3,1,.6.5.4.5.4.5.1.1.3,1.1.4.3.2.4.1,1.6.1.7-.1.4-.1.4-.4.1-.4.2-.3.1-.3v-.3l.1-.3.2-.3.3-.3.2-.4.2-.3.2-.4.4-.2.6-.2,1-.1.6.1,1.1.6.9.2h.6l.9.1.3.3.4.2.4.1h.4l1-.4h1l.2-.3.2-.3.1-.4.2-.3h2.2l.5-.1.4-.2.3-.4.3-1.1.4-.3.5-.1,2.1.3,3.9-.4,2.1-1.1h.4l.4.2.4.1h.5l.6-.6.3-.5.3-.9.1-.4.1-.4.4-.8.4-.3.7-.4,1.5-.4,1.3-.7.6-.6,2.2-1.2h.8l.3.2.8.6,1.2,1.9-.2,3,.1.6.2.9.3.4.4.3,1.6.9.3.4.2.5.8.8.2.4.3,1.4h.8l.7-.2h2l1.6-.3,1.4.1.5-.1,1.4-.7.5-.1h.6l.4-.2.8-.4h.6l.5.1,1,.5.4.3.8,1.4.1.4.1.1.2.4.6.4,4.1,1.5.6.4.1.4-.1.4v.4l.1.7.2.8.1.4v.4l.1.4v.4l.1.4v.5l.1.3.2.3.3.1.3.1.2-.1.5-.5.4-.2,1-.3.4.2.2.2.1.5-.1.3-.3.3-.3.2h-.4l-.7.2-.3.2-.1.3.1.3.3.4.8.7.4.1,1.1.1.4.2.4.2.2.3.4.7,1.6-.4,1.1-2.5.3-.2.3-.2.1.1.1.3v1.3l.1.4-.1.9,1.4.4.6-.1.8-.3.5-.2,1.4-1.3.7-.2h1.4l.4-.2.2-.4v-.7l-.1-.3-.3-.6-.1-.4.1-.6-.1-.4-.1-.4-.4-.2h-.4l-.5.2-.3.4-.3.6-.3.2h-.4l-.2-.3-.2-.3v-.4l-.2-.6.1-.3.3-.2v-.3l.1-.2,1.1-.1,1.2-.8.3-.4-.1-.4-.2-.3-.3-.4-.3-.2-.4-.2-.3.1-.3.2-.2.3-.4.7-.3.3-1,.6-.8.2h-.4l-.4-.1-.3-.3-.3-.3-.1-.4v-.8l.9-2.6.4-.7v-.1l.3-.2.4-.2.7-.4.9-1,.6-.3.6-.2.4-.3.5-.5.2-.5v-1l.3-.2.3-.1.4-.1,1.2.1h.3l.4-.2.6-.5.8-.5.4-.4.6-.6,1-1.3.8-.9.6-.4h.4l.4.1.6.5.4.2,1.2.2,1.1.3,1.1.5.8.2.7-.1,1.2.2,1.1-.1,2.5-1,3.4-2.1.4-.2.4-.1.3.1.2.1.7.6.9.2h1.3l.9.1.3.2.1.2v.5l-.7.6-.2.4-.3.9.1.5.2.3.7.3.2.4v.7l-.2,1v1.3l-.3.6-.2.3-.2.4.2.2.3.2,1.2.3,1.2.1.3.1.5-.2.7-1.6.8-.4.3.2.2.2v.6l.3.4.8.2.3.4.1.3-.1.4-.2.4-.1.2h-.1l-.1.1h-.3l-.7.1h-.5v.5l.2.3.3.4.6.4,1.1.4.2.3.1.3-.1.3-.1.3-.2.1-.6.2h-.3l-.5.5-.3.2-.4.1h-.8l-.7.2h-.4l-.4-.1-.4-.1-.8-.1-.3-.1-.3-.2-.3-.3-.2-.7-.2-.3-.4-.2-.4-.1-.5-.1-1.4.2-.4.3-.2.3-.2.4-.5.7-.6.6-.2.4-.1.4-.1.4.2.3.6.5,1.2,1.6.3.2.3.2.2-.2.1-.3-.1-.3.2-.3.2-.3.2-.3.4-.2.4-.1h.7l.3-.2.3-.3.6-.8.4-.1.2.2.2.4-.1.6-.3.6-.4.7-.5.6-.2.5-.2.4v.4l.2.4.2.3.3.3.2.4-.1.4-.2.5.6-.1.1.1,1.1-.3,1.2-.6,1.3.7,1.1,1.1.8.5.6.3,1,1.3,1.1.5,2.6,2.2.4.5.2.7-2.8.9-1.1-.2-.6-.2-2.6-.4-1.7.2-.7.3-.1.4.4.6.2.4v.4l-.2.5-.3.3-.3.3-.1.4-1.2,1.3-.1.4.2.3h.3l.3-.2h.7l.2.2.1.4v.4l-.1.5-.3.7-.1.4.1.4.6.4.2.3.1.4.3.3.1.4v.3l-.4,1.1v1.7l.1.4v.4l-.7,1.2-.2.2-.8.1-.4.2-.1.3.2.4.2.2.1.4v1l.1.4.1.5.1.3.1.4v1l-.1.6-.5,1.7-.2.5-.5.4v.3l1.3,2,.1.4.3.8.3.2.6.4.5.7.1.4.2.3.4.7.6.3h1.5l.6-.1.3-.1h.4l.3.2.2.3.2.3.1.4.2.4.3,1.8,1.6.5,1.2-.6,1.1-.7.5-.5.2-.5v-.4l-.1-.4v-.4l.1-.4.2-.4.2-.4.5-.7.5-.3,1-.1.5.2.3.1.1.4.1.4v.3l-.2.8-.2.4-.5.5-.2.3-.1.4-.1.4-.1.4-.1.4.2.3.6.3h.6l.5.1.5.2.7.6.3.1h.2l.2-.1,1.4-.1,1.2.2h.7v-.1l.1-.2.1-.3.5-.7.4-.8.2-.5.2-.3.2-.2.2-.2.3-.2.1-.3.1-.7v-.9l.1-.4.1-.2.3-.1.8.2.4-.2.9-.6.5-.5,1.1-.4,2.5-.2,2.1.3.4.2.2.2.1.3.1.4v.4l.2.4.2.4.4.3h.4l2.3-.8.7-.1.8.1.6.1.4.3.2.3v.4l-.2.3-.3.3-.3.2-.3.2v.8l.1.4.3.4.9.8.4.7.1.3v.2h-.1l-.1.2-.2.2-.1.4.1.3.2.8.2.4.4.2,2.2.6h.7l1,.5.4.3.4.4.4.1,1-.1.5-.1.4-.2.7-.5.3-.2,1.6-.9.2,2.7.6,1.7.9,1.2v.4l-.1.5-.1.4-.2.4-.3.3-.4.8-.1.5.1.4.3.4.7,1,.3.7.1.4.2.3.3.2.4.5-.1.7-.2.5-.2.5-.4.9-.3.5-.4.2h-.4l-.4.1-.4.2-.4.5-.4.3-.8.4-.7.9-.2.3-.3.3-.3.1-.8-.3-.3-.1h-.4l-.2.2-.3.1-.3.4-.1.4v.3l.1.4.3.2.2,1.5-.1,1.9.1.9.3.6.3.3.2.4.2.5.2,2.3-.2.2-.3.1-.4.1-.4.2-.7.3-.7.6-.3.1h-.4l-.3-.2-.1-.3v-.4l.1-.4v-.4l-.1-.4-.2-.3-.3-.3-.7-.2-1.2-.2-.4.3-.2.3-.2.4v.9l-.1.5-.2,1.2-.3.4-.2.3-.3.2-.3.1-.2.2-.3.4-.2,1-.1,1.8.4.7.1.3.1.4.3,2,.1,2,.2.4.3.3.3.1.8.1h.3l.4.1.4.2.9.7.3.4v.8l-.3,1.4v1l.1.3v.3l-.3.2-.3-.1-.3-.3-.2-.3-.2-.3-1-.6-.3-.3-.3-.2-.3-.1-.3.2-1.3,1.2-.4.1-.4.1-.9-.2-.7.1-.5.3-.5.4-.5.3-.6.2-1,.2-.6-.1-.7-.4-.3-.3-.5-.1-.5.1-1.3.7h-.5l-1.1-.5-.4-.3-.3-.3-.2-.4-.2-.8-.2-.3-.3-.2-.5-.2-.2-.2-.1-.1-.1-.3-.1-.4-.2-.3-.2-.4-.3-.2-.4.1-.4.2-.7.3h-.4l-.3-.2-.1-.3.3-.6v-.3l-.2-.4-.7-.4-.3-.3.1-.2.6-.4.2-.4.1-.3-.3-.3h-.7l-.3.1-.3-.1-.3-.3-.3-.4-.6-.3-1-.2-.8-.2-.4-.2-.2-.4-.2-.4-.4-.3-.5-.1h-.4l-.4.2-.4.3-.4.2-1,.1-1.5-.5-.5-.2-.3-.4-.3-.7-.1-.4-.1-.4-.2-.4-.7-.3-.5-.1-.5.1-.3.2-.2.3-.3.3-.1.4-.6.4-.9.2-2.7.3h-1.4l-4.7-1.1-.8.5-1.2,1.4h-1.3l-.4.3-2,.4-2-.1-1.1-.5-.1.2.1.2.2.4.2.3v.4l-.1.8-.1.4-.3.2-.9.2-3.1,2.4-.4.1-.7-.1-1.9.4-1.2.8-.5.4-.3.4-.2.4-.7.9-.8.9-1.8,1.2-.6.5-.4.5-.3.8-.3.4-.2.4-.5.9-.4.3-.4.2-3.5,1.2-.4.3-.4.5-.3.5-.6.7-.5,1-.2.4v.4l.1.7v.4l-.1.4-.3.5-.2.4v.4l-.1.8-.1.4-.3.8-.1.4-.2.4-.2.2-.3.1-.9.2h-.4l-.3-.2-.5-.1h-.5l-.8.4-.4.4-1.5,2.4-.2.3-1.2,1.7-.2,1v.4l-.2.9v.8l-.1.3-.4.4-.4.1-.4.2-.8.3-.7.1-.4-.1-.3-.1-.3-.3-.3-.6-.2-.2h-.3l-.2.3v.5l.2.4.1.4v.7l-.2.6-.1.2-.1.2-.1.1-.3.2-.3.3-.3.5v2.1l.1.3-.1.2v.7l.1.3v.8l-.2.4-.3,1.1.2.8-.1.3-.4.2-1.1.1-.3.1h-.4l-.3-.1-.3-.1h-.5l-.2.2-.3.1-.3.4-.2.3-.1.9v.3l-.1.4-.1.5-.4.8-.3.5-.5.3-.4.1-.7.1-.2-.1-.2-.2-.5-.7-.2-.2h-.3l-.3.3v.4l.1.4.2.7.1.4-.1.4-.2.3-.5,1.1-.4,1.8-.5.9-1.3.5-.9.3h-.6l-.5-.1-.8-.4-.3-.2-.2-.3-.1-.4-.2-1.3-.1-.3-.1-.4.1-.4-.2-.3-.5-.1-.8.3-1.9.3h-.9l-.2.2-.2.8-.1.4-.1.5-.4.6-.7.6-.9.5-.4.4-.7.5-.4.3-.4.7-.1.4-.1.4-.2.3-.3.3-.9.6-.6.3-.9.2-.6-.2-.2-.2-.2-1.5-.3-.3-.4.1-1.1.3-.5.2-.3.3-.3.4-.2.3-1.6,1.2-.2.2-.2.2-.4.2-.7.1h-.9l-.5-.4-1.1-.5-4-.5-.7-1.1-.1-.4-.2-.4-.3-.7-.2-2.3.1-.5.1-.4.4-1v-.3l-.2-.3-.7.1-2,.6-1.4,1.1-.3.4-.6.5-.3.2-.3.1h-.3l-1.5.1-1.6-.5-1-.7-1-1.3-1.2-1.1-1.2-.9-1.6-.6-1.4.5-.9-.1-.2-.2-.1-.3.3-.7.1-.3v-.5l-.2-.4-.4-.5-.3-.1-.4.1-.8.5-1.4.3-.3.2-.3.2-.1.4-.1.3-.2.4-.2.4-.2.3-.4.2-.5-.1-1.1-.4-1.4-.7-.6-.4-.3-.4-.6-.5-.9-.5-1.4-.6-.5-.3-.1-.2.2-.2.2-.2.1-.4v-.2l.2-.2.1-.2v-.2l.3-.4v-.2l-.2-.3-.9-.3-.5-.3-.3-.3v-.3l-.1-.3-.8-.2-.4-.2-.6-.7-.4-.4-1.4-.8-.7-.2-.5.1-.4.2-1.4,1-.5.2-.5.2-.7.1-.4.3-.4.3-.3.2-.2.4-.1.3-.2.4-.4.3-1.2.2-.4.2-.4.2-.8.9-1.5.6-.3.2-.8.3-.4.2-1.2,1-.3.3-.2.3v.4l.2.7v.4l-.1.4-.2.2-.4.3-.6.3-2.8.5-.5.2-.4.2-.5.2h-.4l-.7-.5-.4.1-1.3.7-.8-.1-.3-.1h-.3l-.4.2h-.4l-.4-.1-.5-.2-.3-.3-.8-.8-.5-.4h0ZM343.05,169.45l-.9-.2-.8.8-.1,1.3,2.5-.2-.7-1.7h0ZM409.15,56.75l.6.1.3-.1.4-.1h.3l.2.1.1.3.2.2.4.3h.8l.1.2-.1.4-.1.3v.2l-.4.8-.2.2-.2.2-.5.1-.2.2-.1.2v.3l.1.2.2.2.2.2.2.2.4.6.3.2.2.1.3-.1.2-.2.4-.4.2-.2h.3l.1.1.2.3v.4l.2.5v.7l-.1.2-.4.2-.5.1-.2-.1-.1-.3-.2-.1h-.2l-3.2-.1-2-.9-2.7-.6-2.5-1.2-1.1-.8-1-1-.2-.5.1-.3.6-.7.8-1.3.2-.3.5-.1,2.5-.1,1.1.1.5.1.6.3,2.4.7h0Z" fill="#FFFFFF" id="ESCL" stroke="#000000" stroke-linecap="round" stroke-linejoin="round" stroke-width="0.5"/></a>
<a target="_blank" xlink:href="https://rosschris.com/Valencia"><path d="M522.75,167.45l1.1.2.8-.2.2.2.1.4.2.4.5.5.9.2.5.4.4.4-.1.3-.2.3-.2.5v.5l.3.7.4.4.9.5,2.9,1,1.2.7.5.4.3.3v.4l.1.4.3.5.4.2,2.5,1.1.2.2-.3.6-.6,1.6-.7,1-.7.8-.6.9-.2,1.3-1.1,1.1-2.8,5.5-.5.5-1,.9-.6.6-1.4,1.9-2.4,2.1-2.4,4.9-1.1,1.2-2.1,1.2-1,1.6-1.8,3.7-1,1.6-2.5,2.8-4.2,7-.2.6-.1,1.2-.3.9-.4.7-1,1-.6.8-.4.9-.3.9-.2.7-1.3,1.8-.4.9-.3,1.9.1,2.6.3,2.2.8,3.5,2.5,5.6.4.8.5.9-.5.4-.5.4.2,1,.4,1.9.7,1.7,1,1.9,1.1,2.1,1.5,2.6.6.8,1.5,1.2,1.5,1.6.8.6,1.1.3,1.9.2,1.9.6,1.8,1,1.2,1.4-.1.1-.5.3.5.2.3.3,1.1.9.4-.1.3.6v.9l-.3.4h-.7l-.7.2-.6.3-.6.5-.5,1.1v.2l-.2.1-.8.1-.3.1-.5.6-.5.2-.4.4-.4.8.3.7-.8-.2-.6.1-.5.3-.7.1-1.3.1-.5.1-.6.5-.5.9v.7l.1.7-.3.8-.6.6-.6.3h-1.7l-1.8.4-1,.4-1.3.9-3.9,1.6-.6.5-.2.6-.3.2-1.5,1.6-.5.8-.1,1v.5l-.2.2-1.3.1-.5.2-.5.4-.1.8-1.5-.1-.3,2.1.6,4.7-.5.6-.7.1-1.4-.1-.9.3-.8.6-.6.8-.4.8-.2.7-.2.8-.1,2.2-.2,3.4-.1.9-.4.5-1,.4-.8.8-.4.7-1.6,4.1-.1.8v.1l-.8.1h-.3l-.1-.1-.2-.3-.3-.2-.4-.2-.7-.2-.3-.2-1.7-1.8-.4-.3-1.1-1.3-.2-.4-.5-1-.6-.9-.2-.3-.5-.8-.6-1.4-.9-1.3-.1-.2-.3-.3-.3-.3-.2-.5-.2-1-.1-1,.2-.9.2-.6,1.2-1.8.3-.7.1-.4.3-1.6.1-.4.2-.9v-.6l-.6-2.1-.4-.7-.2-.2-.5-.3-1.5-.5-.8-.1-.4-.2-.1-.5-.1-.8-.1-2.1.1-.8.3-.5.3-.4,1.5-1.4.3-.4.2-.3.1-.4-.1-1.2.1-.8.4-1.5v-1.3l-.6-3.3.6-.2h.2l1,.1.8-.1.7-.3,1.3-.9.1-.2v-.2l-.2-.4-.3-.3-.4-.6-.3-.3-.3-.6-.3-.6-.2-1v-.4l.2-.4.4-.1.3-.3.5-.3v-.9l.2-.2.1-.4v-.2l-.6-1.6v-.4l.2-.8v-.4l-.2-.5-1.3-2.3-.5-.3-.4-.2-.4-.1-.3.1h-.2l-.6.5-.8.1h-1.1l-1.1.2-1.1.1-.6-.3-.7-.5-3.9-4.7-.3-.5-.2-.8v-.6l.1-.4.1-.4v-.3l.2-.4.4-.7.2-.4.2-.8.2-.4.5-.6.2-.3.3-.3.3-.8.1-.3.2-.5.1-.3.1-.3.1-.4.1-.8v-.7l-.1-.4.1-.9.1-.3.2-.4-.1-.4-.2-.5-5.4-1.7h-.7l-.5-.2-1.8-1.2-.9-.3h-.3l-.3.1-.2.1-.3-.1-.3.1h-.2l-.1-.4v-.3l-.1-.3v-.3l-.2-.2-.3-.1-.1-.2-.1-.2-.3-.1-.2-.2-.1-.3-.1-.2-.6-.1-.2-.5-.2-.1-.2-.2-.1-.2v-.6l.2-.4.3-.8-.1-.6.1-.2.2-.2.1-.1v-.2h-.1l-.1-.2v-1l.1-.2.1-.3v-.2l-.1-.2-.1-.1v-.6l.2-.5.2-.2.3-.2.5-.4.4-.6,1.5-2.9.2-.3.9-1,.8-.6.3-.1.4-.1.3.1.7.3.4.2.3.1h.8l.3-.1.4-.1.3-.3.2-.3.2-.4v-.5l-.1-.8-.1-.4v-.4l.2-.5.9-1.7.4-.6.3-.4.3-.9.7-2.7.1-.8v-.8l.1-.9v-.4l-.1-.3-.2-.5-.1-.2.1-.3.3-.4,1.6-.7.5-.4.6.4,1-.3h.3l.8-.3,1-.2,1.4.1.7-.1.5.1.7.2,2,.9.5.7.2.5-.1.4-.1.3-.1.4v.4l.1.3.2.3.1.3v.4l-.1.4.1.4.2.3.4.3.4.1h.7l.5-.2,2.3-1.1-.3-.5-.4-.6-.4-.2-.2-.2-.4-.7-.1-.8v-.3l-.2-.3.1-.4.1-.8.2-.3.2-.4,1-.5.4-.1.5-.4h.1l.4-.5.2-.5.1-.8.2-.3.3-.1.3.1h.7l1.5-.2,2.8-1.5.1-.3-.2-.7-.1-.4.1-.4.2-.4.6-.7.6-.4.3-.5.2-.5.1-.8.2-.4.3-.5.1-.8v-.3l.1-.4v-1.1l.3-.3h.4l.3.2.4.2.6.2h.2l.3-.1.4-.1.3-.1h.8l.4-.1,1.4-.7.4-.3.2-.4.1-.6v-.4l-.1-.4.1-.3.8-.7.5-.5.7-1,.3-.4,1.6-1.1.3-.3v-.6l-.1-.4-.3-.3-.5-.7-.2-.2-.7-.5-.2-.3-.1-.4-.1-.4.3-.4.4-.4,1.8-.7.2-.2v-.4l-.1-.3-.2-.6v-.1l-.6-.4-.1-.3v-.3l.1-.4.1-.3v-1.2l-.1-.4-.1-.7v-.4l.1-.4.1-.8-.3-.1h-.3l-.7.2h-.3l-.4-.1-.3-.2-.3-.1-.4-.1-.3-.2-.1-.3v-1.2l-.1-.4.1-.4.3-.3.5-.3.5-.1.6.1.7.5h.3l.5-.3.3-.3,2.1-1.1.2-.3v-1.6l.2-.8.2-.3.2-.4.8-.9.4-.2h.7l.6.2.4.3.3.3.6.6,1.8,1.2,1.1.2,2-.2.7.2.2.3.2.4v.7l.3.2h.4l.4-.3.3-.3.4-.3.3-.2.5-.1.6-.1,1.5-.1,1.1-.4h0ZM457.25,198.25l2.2.5,1.2.1.9-.2.7-.4.2-.3.1-.4-.2-.8.1-.5.3-.4.5-.4.2.1.2.2.2.8.4.7.2.3.2.4.3.2.3.2.2.2v.5l.2.3.3.3.8.4,2.5.3,1.1.7,1.3,1.1.5.6.1.3.1.4-.1.3-.3.4-.3.2-1.9,1-.9.2-.7.2-.3.1-.8.1-.7.1-.4.1-.4.2-.6-.1-1.1-.4-2.6-.4h-.4l-.4-.1-.3-.3-1.2-3.4-.1-.6-.1-.4-.2-.3-1-.5-.2-.3-.2-.3.1-1h0Z" fill="#FFFFFF" id="ESVC" stroke="#000000" stroke-linecap="round" stroke-linejoin="round" stroke-width="0.5"/></a>
<a target="_blank" xlink:href="https://rosschris.com/Murcia"><path d="M474.55,276.45l.6,3.3v1.3l-.4,1.5-.1.8.1,1.2-.1.4-.2.3-.3.4-1.5,1.4-.3.4-.3.5-.1.8.1,2.1.1.8.1.5.4.2.8.1,1.5.5.5.3.2.2.4.7.6,2.1v.6l-.2.9-.1.4-.3,1.6-.1.4-.3.7-1.2,1.8-.2.6-.2.9.1,1,.2,1,.2.5.3.3.3.3.1.2.9,1.3.6,1.4.5.8.2.3.6.9.5,1,.2.4,1.1,1.3.4.3,1.7,1.8.3.2.7.2.4.2.3.2.2.3.1.1h.3l.8-.1.2,2-.2.5-1.1-1.3-1,2.7-.5.4-.9.3-.3.7.1.9,1.3,2.4.4.5,1.3.9,1,.4.8.1.3-.6.7.5.3.5-.1.7-.6.4-.4.4-.3.2h-.4l-.3-.3-.4.3-1.1.4-.7.1-1.1.7h-1.6l-.5.1-.5.2-1,.7-.4-.3-1.6-.7-1.3-.3-2.6-.1-.7.1-.6.3-.5.3-.2.5.1.5.5.9-1.3-.3-1.2-.3-.3-.6-.2-.4-.8-.1-1.2-.5-.6-.2-.6.6-.1.5h-1.2l-1.3-.2-1.2.6-.7.4-1.8,1.8-.6.4-.8.2-.3.1-.3.3-.3.2-.1.3-.1.2-.4,1.7-.1.3-.3.3-.3-.1-.2-.1-.3-.1-.3.3-.8.7-.4.1-.6.1-2,.9-1,.6-3.6-2.9-.4-.2-2.1-.4h-.2l-.2.2v.2l-.1.2h-.2l-.3-.2-.3-.2-.5-.5-6.1-9.3-.3-.5-.2-.3-.1-.5-.1-.9.1-.4v-1.2l.2-.5.1-.7v-.3l-.1-.5-.2-1.9.1-.3.3-.8v-1.2l.1-.4.2-.3.4-.6v-.3l-.3-.3-3.8-.5-1.4-.7-.5-.2-1.9.1-1.5-1-.9-.5-1.2-1.4-.8-1.3-.6-1v-.1l-.3-.3-1.4-1.1.6-1.8.2-.4,1.5-1.7,1.2-1.7,1.2-2.4.4-.7,1.2-1.1.5-.3.4-.2.8-.1.5-.3,1.7-1.6,1.1-1.2.6-.4.5-.1h.3l.3.2.7.7.2.1.4.1,1-.4,1.3-.3.7-.2,1-.5,1.5-1.2,2.1-1.3.1-.3v-.3l.1-.1h.2l.5-.1.3-.3.2-.1.4-.2h.3l.3.1.5.3.2.1.7-.1h.2l.2.2.2.2.2.2v.5l-.1.3v.5l.1.3.2.2.1.2.3.2.5.2.3.2h.8l2.4-.8,3-2.4.3-.4.2-.4.1-.3v-.9l-.2-1.2v-.9l-.1-1.6-.1-.8-.2-.7-.2-.3-.1-.2v-.9l.2-.3.4-.9.4-.3.5-.4.2-.3.2-.4.1-.7-.1-.4.2-.8.6-1.5,1.3-1.5.7-.6.5-.3.4.1.2.2.2.3.3.2h.4l2.3-1.3,1-1,.4-.3.4-.2,2.4-.7.4.1,1.5.5.3.2.2.2.1.4v.4l.1.3.2.4,1.1,1,2.3,1.7h0ZM486.15,323.05l-.3,1.1v1.2l.6,1.9-.8-.9-.2-1.5v-1.7l-.1-1.5h.2v.2l.1.2.1.2.2.5.2.3h0Z" fill="#FFFFFF" id="ESMC" stroke="#000000" stroke-linecap="round" stroke-linejoin="round" stroke-width="0.5"/></a>
<a target="_blank" xlink:href="https://rosschris.com/Andalusia"><path d="M235.05,299.95l.6-.5,5.5,1.8.2.4.1.4-.2.3-.2.3-.2.4-.2.6-.1.4.1.3.4.2.5.2.5.2,1.1.4h1.9l1-.1,1.3.1.6.1.5.2.6.5.8,1.1.1.3.1.4-.1.4.1.3.3.3,1.9.1,1,.3h.6l.1-.2.1-.3.2-.2.6-.5.2-.3.2-.3.3-.2.3-.1h.4l.5.1,1.6,1.2.3.5.2.4v.4l.2.3,1,.3,5.3,2.2.7.6.5-.5,1.3-1,1-.5,3-.6.8-.1,1.7-.3.6-.2.4-.3.4-.5.2-.4.1-.3v-.3l.2-.3.7-.9.1-.3v-.4l-.2-.3-.2-.3-.1-.4v-.3l.1-.4.2-.4.2-.3.4-.4,1-.6.3-.2.3-.3.3-.6.3-.4.3-.2,1.3-.5,2.7-.4.5.1.5.5.7.7.1.3.1.3-.2.3-.6.4-.4.1-.3.2-.2.2v.7l.2,1.1.3.3h.4l.7-.1.9-.6.9-.9.3-.3.8-.5,1.7.1,1.7-1.4.2-.3v-.7l.2-.7.1-.4.3-.3.1-.7v-.4l-.1-.4v-.4l-.1-.4v-.7l-.1-.2-.3-.7-.2-.3-.1-.3-.1-.2-.1-.6-.1-.2-.2-.3-.1-.2-.3-.2-.1-.2-.1-.2v-.7l.1-.3.1-.6v-.5l-.1-.2-.4-.4-.1-.3v-.5l.3-1.1.3-.3.5-.5,1.8-1,.6-.2.3-.2.5-.7.2-.4.6-.5,1.2-.8.3-.5.2-.4v-.3l.1-.3.2-.3.2-.3.4-.5.2-.3.7-.7.5-.1h.9l.5.2.2-.1h.2l.1-.3v-.2l.1-.2.1-.3.2-.2.2-.2,1.3-1.2,1.9-1.2,1.2-.4.1-.3.1-.2.2-.4.1-.5-.1-.4-.1-.4.1-.3.4-.2,3.2-.1.7-.3,1.1-.1,2.3,1.7,1.3.6h.9l.5-.1h1.2l.4.2.1.4.1.8v.4l.1.8.2.5.5.5.8.6.6.2.5.1.8.1.5.1,1.7.8.5.3.3.4.1.3.8.5.7.2,1.4,1.2.4.4.2.5.3.4.3.3.4.1h.4l.5.2.5.4.6.3,1.1.9,1.1,1.2.8,1.1.4.5.4.2,1.8.9,1,.3.6.1,2.6,1.1.4.1.6-.1.1-1.9.1-.4.3-.3.3-.1h.9l.8.1,1.5.5,11.5.5,1.3-.2.8-.4.4-.8.3-.3.6-.5.6-.1.6-.1.5.1.3.2.7.2.4-.1.2-.1h.4l1,.4.8.1,2.1.6.5-.1.5-.1.3-.2.1-.3.2-1.1.2-.4.4-.3.5-.1.4.1.2.3.2.3v.4l.1.3.2.4.3.1,1.3.4.7.1h.5l.5-.1,1-.4,1-.6.5-.7.2-.3.1-.3.1-.4.1-.4.3-.3.7-.4.9-.1h.6l.5.2.7.3.8.3.7.1,2.9.2,1.3.4h.6l.4-.2.6-.6,1.1-.7h.4l.3.2.3.3.9,1.3.6.7.3.2.2-.2.1-.3v-.6l.3-.3.8-.6.6-.3.6-.1h.5l.5.1.4.1.3.3.4.3h.2l.2-.1.1-.1.1-.1.2-.1h.1v-.1l.1-.2.4-.3.2-.2,1.2-.6.2-.1.1-.1h.1l.6-.4.8-.7.1-.2.5-.4,1.5.9,1.8.8.7-.3.6-.2.6-.1,1.2.1.6.2.4.2.1.1v.2l-.2.6.1.7.1.4v.7l-.1.4v.4l.1.3.1.3.4.4,2.8.8.1.3-.1.7.1.4v.4l.2.4.1.7v1.3l.1.5.2.5,1.3.8.3.5.1.4v.3l-.1.3v.4l-.1.3-.1.3-.2.3-.2.1-.1.2v.2l.2.7.1.4-.1.4-2.5,3.3-.4.7-.2.3-.6.6-.5.7,3.3,1.6,4.3,1.2.4.1.5-.2,1.4,1.1.3.3v.1l.6,1,.8,1.3,1.2,1.4.9.5,1.5,1,1.9-.1.5.2,1.4.7,3.8.5.3.3v.3l-.4.6-.2.3-.1.4v1.2l-.3.8-.1.3.2,1.9.1.5v.3l-.1.7-.2.5v1.2l-.1.4.1.9.1.5.2.3.3.5,6.1,9.3.5.5.3.2.3.2h.2l.1-.2v-.2l.2-.2h.2l2.1.4.4.2,3.6,2.9-.1.6-.3.4-.8-.1-.3.4-.3.9-.5,1.1-1.2,1.7-2.4,2.4-1,1.4-.7,2.1-.3,1.8-.5,1.3-.2,1.4-1.2,3.1-.9,1.4v.7l.1.4.2.4v.9l-.2.3-.3.1h-.9l-.3.2-.5.5-1.4.9-.6.7-.4,2.1-.5.6-.6.5-.6.7-.2.4-.2,1-.2.4-.4.2-.4.1-.4.2-.4.9-.7.5-.8.4-.8.1-1.5-.5-1.1-1.2-1-1.3-1.1-1.2-1.4-.9-.8-.3-1-.1-.7.1-1.3.7-.8.2-.4-.1-1.1-.5-.5-.1-3.2.6-.7.4-.8,1.9-.8,2.2-1,1.1-.2.2-.5.4-1,.5-1.4.2-.7-.3-.8.4-1.1-.8-.8-.6-.7-.3-.4.1-.3.4-.4.2-.4-.3-1.1-1.5-1.2-.8h-.7l-2.2.7-3.6-.6-2.1.1-1.2.1-2.9-.5-4.1.5-.6.4-.5.6-.8.6-1.5.9h-2.5l-1.6-1.3-.8.1-.6.3-1.4-.7-.6-.8-1.3.1-1.3.1-.6.5-2.1.2-1.8-.5-1.1-.4-1.4-.5-2.1.5-2.9.8-3.8-1.1-1,.3-1.2.9-3.5.5-1.1.1-7.2-.5-.7.2-.5.4-1.2,2-.2.4-.6.6-.4.8-.2.8-1.1,2-2.6.3-1.1,2.2-1.4.9-.4.2-.8.4-1.7.4-1.7-.1-4.7-.6h-.9l-.4.1-.4.4-2.9,2-2.8.2-1.8,1.2-.5.2-1.5.1-.7.3-.5.3-.5.7-1.1,2v.4l-.7,1.9-.4.7-.2.2-.3.3-.3.2-.7.3.1.4.1.4-.4.7-1.3,2.5-.2.5-.2,2.3h-.8l-.3-1.1-.7-.4-.9-.4h-.8l-.2.5-.3.4-.2.6v.7l.3.7-.2.4.1.7.2.5.1.4-.1.6-.3.3-.2.3-.9.3-4,1.5-.6.4-1.3.3-.7-1.5-1.7-.9-.7-.6-.9.4-.9-.3-.8-.5-1.7-.5-.6-.6-.9-1.2-2.6-2.6-.8-.5h-.9l-1.8.3-2.1-.6-1.1-1.4-.8-1.7-.9-1.5-2.2-1.2-.2-.7-.1-.8-.3-.9-.4-.9-1.4-1.6-.9-2.2-.6-1.5-.9-1.7-.9-.8-.4-.4.5-.2.4.1,1.3,1.1.3.5-.2.4.3.5.6.7.5-.1.3-.3.5-.7.8-1h-.3l-.8.3-.7-.1-.3-.8.2-1.5-.3-1-2-1.8-.4-.3-2.7-.1-.8-.2-.6-.7-.5-2-.4-.9-.6-1-.2-.9.2-.9.7-.8.8-.4,1.5-.6.5-.4.4-1.2-.3-2.1.2-1.2,1.4-1.2,2.9.2.3.1,1.2-1.6-.8.6-1,.4h-1l-.8-.6-1.7.6-.5.4-.3.2-.3,1.1.3,3-.3.6h-1.4l-1.1-1.5-1.4-3.3-.9-1.6-1.1-1.2-9.9-7.2-1.1-.6-.9-.2-.7-.3-1.7-1.4-.8-.4-.8-.4-.7-1.2-.3-1.3.3-.6.5-.4,1.4-2.1.4-.9-2,2.3-1.1.8h-1.3v.3l.9,1.4.4.8.1.6-.6.1-3.5-1.8-1.3-.4-1.6-.5-1.1.4,1.2.2.5.3-9.8.2-.6.3-.8.7-.7.1-.7-.3-.7-.3-.6-2.3-.2-1.1.3-.8-.4-1.7-.3-4-.7-1.6.1-.6-.1-1.1-.3-1.2-.3-1-.2-.3-.7-.6-.3-.3-.3-.5-.1-.1v-.2l-.1-.4-.2-.7h-.2v-.6l.1-.2.4-.5.1-.2.1-.3v-.2l-.1-.3.4-.3,1-1.1.3-.4.2-.8.4-2.5.5-1.5.7-1,3.8-3.2,1.1-2,.4-1.7.9-2.4.2-.9v-.5l-.1-.5v-.4l.2-.3,1.3-.3.4-.3.6.1.5.1.5.1.5-.3.5-.1.3-.2.4-.6.4-1.1.4-.4.7.1,2.3,1,1-.2.3-1.2.4-.6.4-1.6.7-1.6.6-1.7.3-.7.4-1.5-.1-.1h0Z" fill="#FFFFFF" id="ESAN" stroke="#000000" stroke-linecap="round" stroke-linejoin="round" stroke-width="0.5"/></a>
<a target="_blank" xlink:href="https://rosschris.com/Asturias"><path d="M239.95,49.05l-.2-2.1-.1-.6-.4-.5-.9-.9-.4-.2-.7.1-.4-.1-.3-.1-.4-.3-.1-.2-.8-1.2h-.3l-.1.1v1.2l-.1.1v.1l-.2.1-.2.1-.4-.2-.3-.6-.2-.6.1-.6.3-.4.3-.1.3-.2.3-.4.1-.5.1-.4.1-.3.2-.3.2-.1.3-.1h.8l1.4-.6.4-.2,1.5-1.4.1-.5-.2-.6-.6-1-.4-.6-.3-.3h-.3l-.3.2-.2.4v.3l-.2.3-.3.2-.4.2-.8.4-.6.3-.4-.1-.3-.2-.2-.3-.3-.4-.1-.4.1-.6.2-.8.1-.3v-.3l-.3-.2-.3-.1-.7-.3-.4-.6-.3-.1h-.3l-.9-.8-.3-.3-.2-.4-.3-.5-.3-2.4-.3-.3-.3-.2-.4-.1-.5-.6-.3-.4-.2-.6-.2-.6v-1.4l-.2-.3-.2-.2h-.7l-.6-.2-.1-.3-.1-.3.1-1.1.1-.4.3-.3.5-.1h.4l.4.1h.6l.3-.2.4-.4.6-.9,1.2-1.1.1-.1.1-.4.1.3h.2l.2-.9.2-.9.2-.8.6-.4.3-1.3,2.3-.5,4-.2.6.2,2.4-.2,1.7.5,1,.1,2.3-1.2,2,.2,2.1.8,1.5.8.4-.3.4-.1h1.1l-.1-.3-.1-.6-.1-.3.6.1.9.6.6.1,2.1-.4h2.1l.5-.1,1.1-.5,1-.2.2-.3.3-.3.6-.1,1.3,1,.5.1,3.1.4.6-.4.7.4.6-.3.6-.5.6-.3h4.7l.2-.5-.3-.4-.1-.5.5-.5-.1-.2-.1-.4-.1-.2h1.3l.5-.2.2-.7.2-.6.7.1,1.3.6.9.8,2.2,2.6.7,1.2h.3l.2-.8.3.3.5.9,2.1.4,8.1-.4,1.3.4.1.7-.5.9-.7.7.2.4.5-.3.8-.3.4-.2.3-.4.1-.3.2-.3.6-.1,1.7.1.7.3,2.9,1.9,1.4.5,3.5.2.9.3.5.7.4-.3,2.9.8.3-.1.6-.5.4-.1.5.1.9.5,2.9.6,3.3,1.6.8.2,8.9.8v1.1l-.3.7-.5.9-.1.4v.3l.2.2.4,1,.1.8-.1.6-.1.4-.2.4-.3.2-.4.1-.2-.2-.2-.6-.3-.2-.7-.2h-.9l-.6.4-.3.3-.1.3-.2.2-.4.2-.9.1h-.4l-.3-.1h-.4l-.5.1-.5.3-.2.3-.1.4.1.8-.1.4v.8l-.1.5-.3.6-.3.2h-.4l-.8-.1-.4.1-.4.1-1.2.2-.4-.1-1.2-1.9-.8-.6-.3-.2h-.8l-2.2,1.2-.6.6-1.3.7-1.5.4-.7.4-.4.3-.4.8-.1.4-.1.4-.3.9-.3.5-.6.6h-.5l-.4-.1-.4-.2h-.4l-2.1,1.1-3.9.4-2.1-.3-.5.1-.4.3-.3,1.1-.3.4-.4.2-.5.1h-2.2l-.2.3-.1.4-.2.3-.2.3h-1l-1,.4h-.4l-.4-.1-.4-.2-.3-.3-.9-.1h-.6l-.9-.2-1.1-.6-.6-.1-1,.1-.6.2-.4.2-.2.4-.2.3-.2.4-.3.3-.2.3-.1.3v.3l-.1.3-.2.3-.1.4-.4.4-.4.1-.7.1-1.6-.1-.4-.1-.3-.2-1.1-.4-.1-.3-.5-.1-.5-.4-.5-.4-1-.6-.2-.3-.2-.4-.1-.4-.2-.8-.2-.3-.4-.3-1.2.3h-.5l-2-.4-.4.1-.1.3-.1.4-.1.5-.3.3-.8.4-.5.1-.5-.2-1.1-.4-1-.2-.5.1-.3.3-.1.8-.2.2-.3.1-.8-.2-1.7-.9h-.6l-.8-.2-.3-.3-.4-.3-.7-.2-1.1.5-.2.4-.2.4-.2.3-.2.4-.1.3v.3l-.1.2-.3.2-.9.3h-1.1l-.2.2-.1.3.2.3.4.3.7.2.2.3v.3l-.2.4-2.1,1.1-.6.1-1.4.6-.4.1-1.9-.2-.3-.2-.3-.1-.5-.1h-1.9l-.8.1-.7.3-.4.2-.3.4-.3.3-.3.3-.5.3-.3-.1-.2-.5-.8-.4-1.3-.2h0Z" fill="#FFFFFF" id="ESAS" stroke="#000000" stroke-linecap="round" stroke-linejoin="round" stroke-width="0.5"/></a>
<a target="_blank" xlink:href="https://rosschris.com/Cantabria"><path d="M388.55,24.35v2l-.2.5-.2.4-1.8.9-.3-.1-.9-.3-1.1.1-2.5-.1-.5.2-.5.4-3.4,2.5-.4.6-.1.5.1.3.1.5v.4l-.1.4v.4l.2.3.2.4.3,1.2v.7l-1.1.1-1.2-.2-.7.1-.8-.2-1.1-.5-1.1-.3-1.2-.2-.4-.2-.6-.5-.4-.1h-.4l-.6.4-.8.9-1,1.3-.6.6-.4.4-.8.5-.6.5-.4.2h-.3l-1.2-.1-.4.1-.3.1-.3.2v1l-.2.5-.5.5-.4.3-.6.2-.6.3-.9,1-.7.4-.4.2-.3.2v.1l-.4.7-.9,2.6v.8l.1.4.3.3.3.3.4.1h.4l.8-.2,1-.6.3-.3.4-.7.2-.3.3-.2.3-.1.4.2.3.2.3.4.2.3.1.4-.3.4-1.2.8-1.1.1-.1.2v.3l-.3.2-.1.3.2.6v.4l.2.3.2.3h.4l.3-.2.3-.6.3-.4.5-.2h.4l.4.2.1.4.1.4-.1.6.1.4.3.6.1.3v.7l-.2.4-.4.2h-1.4l-.7.2-1.4,1.3-.5.2-.8.3-.6.1-1.4-.4.1-.9-.1-.4v-1.3l-.1-.3-.1-.1-.3.2-.3.2-1.1,2.5-1.6.4-.4-.7-.2-.3-.4-.2-.4-.2-1.1-.1-.4-.1-.8-.7-.3-.4-.1-.3.1-.3.3-.2.7-.2h.4l.3-.2.3-.3.1-.3-.1-.5-.2-.2-.4-.2-1,.3-.4.2-.5.5-.2.1-.3-.1-.3-.1-.2-.3-.1-.3v-.5l-.1-.4v-.4l-.1-.4v-.4l-.1-.4-.2-.8-.1-.7v-.4l.1-.4-.1-.4-.6-.4-4.1-1.5-.6-.4-.2-.4-.1-.1-.1-.4-.8-1.4-.4-.3-1-.5-.5-.1h-.6l-.8.4-.4.2h-.6l-.5.1-1.4.7-.5.1-1.4-.1-1.6.3h-2l-.7.2h-.8l-.3-1.4-.2-.4-.8-.8-.2-.5-.3-.4-1.6-.9-.4-.3-.3-.4-.2-.9-.1-.6.2-3,.4.1,1.2-.2.4-.1.4-.1.8.1h.4l.3-.2.3-.6.1-.5v-.8l.1-.4-.1-.8.1-.4.2-.3.5-.3.5-.1h.4l.3.1h.4l.9-.1.4-.2.2-.2.1-.3.3-.3.6-.4h.9l.7.2.3.2.2.6.2.2.4-.1.3-.2.2-.4.1-.4.1-.6-.1-.8-.4-1-.2-.2v-.3l.1-.4.5-.9.3-.7v-1.1h.1l.1.1,1.1,1,.8-.8,1.2-.2,1.1.3.8.7h.2l.5-.7.3-.2,1.9.2,5-.5,1.2-.9,2.5-.8,1-.1h1.8l.2-.2v-.2l.1-.3.3-.1.3.1,1,.7.2-.3.2-.1h.4l-.1-.1-.4-.3v-.4l1.4-1,.7-.3.6.2.5-.3h.2l.2.3,1.1-.7,1.3-.3,1.2.2,1.1.8-1.8.8-.7.5-.6.6.5.5.2.2.2.1h-.3v.3l.4.1.4-.1.6-.3.3-.3.5-.8.2-.1.3.1.4.5.4.2.1-.3-.1-.5-.2-.5-.3-.2v-.4l.6.1.2.1.3.2.1-.3.2-.1-.3-.4.5-.2,1.1-.1.5-.3.4-.4.5-.2,3-1,1.1.1-.1,1h.7l.5.4.5.5.3.2,2.8.5.2.2.2.3v.3l-.1.5-.1.1-.3-.1-.3.1-.2-.2-.4-.2-.3-.1-.2.3-.1.3-.4.3-.6.4.8.1.4.7.4.2.6-1,.4.6.6.1,1.2-.4.6.1,1.9.7,2.5.4,1.8.7.6.1.4.2.9,1.1,1.1.3h0ZM383.75,31.15l.1.6-1.3.6-.2-.3v-2.2l.7.3.7,1Z" fill="#FFFFFF" id="ESCB" stroke="#000000" stroke-linecap="round" stroke-linejoin="round" stroke-width="0.5"/></a>
<a target="_blank" xlink:href="https://rosschris.com/Canary"><path d="M9.65,503.35l.8.1.7.4.5.6.2.6-.2.7-1.7,2.6-.1.2.1.3v.3l-.2.3-.2.1-.2.1-.2.1v.3l-.2.2-.3.3-.3.3-.1.4-.1,1.1-.4.5h-.6l-.8-.5-.6-.6-.4-.6-.5-.5-3-.4-.8-.4-.6-.6-.2-1.6,1-.5,1.8.1,1.6.4.6-.4,1.6-1.5.3-.4v-.5l.2-.2.9-.4,1.4-.9h0ZM34.85,487.05l2-.5,1.9.6,1.7,1.1,2.2,1.6.5,1.1.2,1-.6.9-.8.5-1.2,1.1-.9.7-.9.2-1,.3-1-.2-2.1-1.3-1.4-2.1v-1.6l.2-1.7,1.2-1.7h0ZM70.45,489.65l-.5.8-.6.8-2.7,2.7-.6.9-.3.6-1.4-.3-2.2.9-1,.3-.7.3-.7-.1-.4-.6-.1-.5.1-.5-.4-.2-.3-.2-.1-.4-.1-.9-.1-.3-.6-.7-1.5-1.6-.4-.7-.2-1-.6-.7-.7-.7-.4-.6-.3-2-.1-.4-.6-.9-.5-1.1-1.3-1.4-.4-.9,1-.6,2.2-1,.8.3.9.7.5.1h.5l1.1-.3.9-.5,1.3-.4,1-.4.8.2,1.6-.1.8-.1.8-.6,1-.2.5-.1.8-.1.8-.7,1.9-1.7.8-.7.3-.4.1-.7.1-.2.8-.5.3-.2.7-.4.9-.2.8-.3.2-.8.7.2,3.9.1,2.5-.9.9.6-.3,1.3-1.3.8-2.9,1.7-.7,1.3-.9.8-1.1,1.1-1.1,1-.7.3-.6.4-.4.9v1l.2.7.1.5-.1.5-.4.3-.3.4-.3,1.1-1.3,2.4-.4,2v.8h0ZM16.85,458.95l-.1.9.3,1.1.4.8.7.4.1.9-1.2,1.4-.6,1,.3.9.5,1.7-.3.8-.3,1.2-.9,1.3-.8,1.8-.8,1.6-.4.9h-.2l-.2-.4-.9-.5-.3-.9-.3-2.2-.5-.6-.3-.7-.8-1.2-.3-1-1.5-2.4-.2-1.2-.1-.7-.2-.7-.7-.5-.4-.5.2-1.4,1.1-1.5,1.4-1.3,1-.7.8.5,1,.2,1,.2,1.6-.6.8.3.7.6.4.5h0ZM112.35,495.15l.3.3.6.4.2.3-.1.7-.3.8-.1.8.5.8v.3l-.4.2-.3.4-.4,1,.3.6.3.9-.1.7-.6.2-.5.4-1.3,1.6-.6.5-2.8.9-.5.3h-.2l-1.1,1.2-.4.2-.5-.2-.3-.3-.4-.2-1.8-.1-.7-.2-.7-.3-2.2-1.9-.3-.4-.2-.3-.8-.5-.4-.3-.2-.3-1.1-2.6-.3-.9.2-.9-.1-.5-.1-.8v-.7l.2-.5.4-.4,1.6-.9.7-.5,1-1,.7-1.1-.2-1.1.4-.5.2-.8-.1-.9-.2-.7h.9l.4.1.3.2.6-.1,2.2.7h3l2.6.7.9-.4-.1-1.5,1.2-.2.1.1.2.5v.4l-.3.2-.3.5v1.3l.3,1.8.1.3.1.5.2.6.3.6h0ZM169.65,462.75l1.5-.6,1.5-.2,1.4.4,1.1,1.4.5,1.5.1,2.1-.3,3.9-.2,1-.8,1.7-.1.6-.1,1.6.1.5.1.3.4.6v.3l-.2.5-.7.7-.1.2-.1.4v.5l-.2.4-.6,1-.4.7-.4,1.6-.9,1.5-1.4.8-4.2.7-1.9.5-1.3,1-1.6.4-.9.4-1.3,1.5-1.1,1.5-1.2,1.3-1.7.8h-1l-1.6-.8-.8-.2-2.7.2-.5-.2.2-.1.1-.6.1-.5v-.2l.3-.1,1.4.3.8-.1,1.5-.5,2.3-1.1,2.9-1.9,1.2-1.1.6-.8.5-.8.2-.9.2-2.2.4-.8.9-1.4,1-3.3.2-.5.5-.4,1.2-2,.9-2.3,1.6-2.3.5-2.3.6-1.4.2-1.7.2-.6.4-.5.7-.4h0ZM189.45,439.45l.7-.1.8.5,1.1,1.1-.4.9-.1.8-.3.6-.8.5-.2.7.1.7.3.6v1.2l-.4.6-.1.4v1.5l-.7,1.2-1.1,1-1.3.7-1.9.5-.4.4-.4.4-.4.2-.7.1-.9.2-.7.1-1.4.3-1,.8-.9,1.2-.7,1.4h-.3l-.4-.6-.8-.3h-1.9l-.3-.2-.3-.6-.1-.5.1-.3.5-.1.3-.4.4-.7.2-.8.2-2.3.1-.6,1.3-2.2.7-.8.6-.4.7-.3.7-.2h1l.7-.3,1.4-1.1.8-.5.7-.3.7-.1h2l.6-.2.4-.5.5-1.1.5-1.6.3-.8.5-.7h0ZM189.25,437.45l.4.8-.6,1.1-1,.8-1-.2v-.3l.7-.7.3-1,.4-.8.8.3h0Z" fill="#FFFFFF" id="ESCN" stroke="#000000" stroke-linecap="round" stroke-linejoin="round" stroke-width="0.5"/></a>
<a target="_blank" xlink:href="https://rosschris.com/Balearic"><path d="M577.45,275.25l1.6-.7.7.8-.1,1.2-.9.2h-1.4l-2-1.3-.7-.4-.7.6-.4.3-.7.9-.6.4-.6-.2.2-1-.2-.4v-.5l.2-.4.2-.5v-.4l-.2-.2-.2-.2.2-.3.5-.6.3.3.4-.2.4-.6.2-.8h.2v.3l2,2.8,1.6.9h0ZM580.65,253.75l-.2.5.3,1,.6,1.8h-.7l-.5.4-.3.7-.2.8-.2.3-1.4,1-1.3,1.9-.5.4-1.1.6-.4.6-.2-.2-.2-.3-.2-.2-.6.9-.6.3-.4,1.7-.1,1.3h-1.3l-.4-1-.7-.6-.6.3h-.3l-.1-.1-.4.1-.3-.7-.7-.2-.7.2-.3.7-1.2-.9-.5-.6-.2-.9.5-1.2.1-.8-.3-.6.3-.4.4-.2.5-.1.4.3.3-.3.4-.1,1,.1-.4-2.2.1-1.3.4-.5.6-.2.6-.5,1-1.1h.2l.4.4.8-.7.4.3.8-.6,1.1-.6,1.2-.3.8.1.4-.5.6-.2h.5l.7.6.3.1h.7l.5.1.3.3.3.3h0ZM651.35,217.55l1.1.3,2.3,1.4,1.4.1-.2.5v.5l.1.4.1.4-.2.3-.2.2-.1.3.2.7-.5,1.4-.5.8-.5.3-.7.2-.4.6-.2.9.3.8-1.6,1.5-1.7,2-1.3,2.6-.4,2.9-.4-.3-.1-.1-.7,2.2-1.2,1.3-3.7,2.3-1.6,1.4-.3.5-.2.2-.3.2-.4.2-.2-.2-1.1-1.7-.2-.2-.7-.3-.2-.2-.2-.5-.1-.5-.1-.5-.3-.2-.4-.1-.6-.6-.4-.1-.5.1-.6.2-.4.1-3.5-.3-1.6-.6-1-1.3-.4-2.8-.6-.4.1-.9.6-1.2-.4-1.1-1.2-1.1-1.3-.8-1.1-.3-.9.3-2.6,1.4-.5.6-.5,1.5-1,1-1.1.2-.7-1.4-.1-.1-.1-.4.1-.3.4-.3-1.1-1.1-.4.5-.3.2-.2-.2-.3-.5-1.1.7-.2.1-.4-.3-.4-1-.7-.6-.2-.9v-1.1l.3-.8,2.9-1.8.8-.2.8-.5,1.9-2.1.6-.3.9-.1.6-.3.7-.5,1.3-1.4.2-.3.2-.6.1-.2h.2l.5.1.2-.1.9-1,.2-.2.2-.1.8-1,.2-.2.3-.1,1.2-.6.6-.5.5-.5.4-.3.6-.2.2-.1.2-.5.2-.1.8.1.4-.1,1.2-.5,2.4-1.7,1.3-.3,2.3-.2,2.2-.6,4.2-1.7.5.7.2-.2.2-.1.5.3-.4.3-1.5.7-.5.1-.6.3-.5.6-.5.4-.5-.2h-.3v1.7l1.4.2,3.1-.8v.3l-.4.3-.1.3.1.4-.2.4-.2.3-.2.2-.7.2-1.3.4-.3.4v1.1l.4,1.1,1.1,1.1,1.3.7,1.2.3h2.7l.8-.3,1.2-1.2.6-.3h0ZM689.65,210.15l.1.7.9,1.5.3.8h-.2l-.2-.3-.3-.3-.3-.3-.3-.2-.2,3.5-2,.3-2.9-1.4-6.6-4.4-1.3-.5h-1.6l-3,.6-1.5-.6.2-.6v-.8l.1-.7.5-.4-.3-.3-.9-.3-.3-.3-.4-.7v-.2l.1-.3.1-.6.5-.7,2.8-.6,1,.4,3.9-.4,1.6.1.5-.1.6-.3.6-.5.5-.3.1.7.3.4.9.7v.2l-.1.3v.4l.3.2.2-.1.3-.4.4-.6-.1-.8.3-.2.3.3-.2.7.2.4,1.2.7.2.4.2.3.4.4.2.1.6.1.3.2.4.5.4.9-.1.8-.7.3.6.3.7-.1.5.2.2.9h0ZM636.35,249.85l-.1,1.4-.8,1.2-1.3-.1-.7-1.7,1.1-1.1,1.6-.7.2,1h0Z" fill="#FFFFFF" id="ESIB" stroke="#000000" stroke-linecap="round" stroke-linejoin="round" stroke-width="0.5"/></a>
<a target="_blank" xlink:href="https://rosschris.com/Castilla_La_Mancha"><path d="M468.85,205.55l.7,2.1-.5.4-1.6.7-.3.4-.1.3.1.2.2.5.1.3v.4l-.1.9v.8l-.1.8-.7,2.7-.3.9-.3.4-.4.6-.9,1.7-.2.5v.4l.1.4.1.8v.5l-.2.4-.2.3-.3.3-.4.1-.3.1h-.8l-.3-.1-.4-.2-.7-.3-.3-.1-.4.1-.3.1-.8.6-.9,1-.2.3-1.5,2.9-.4.6-.5.4-.3.2-.2.2-.2.5v.6l.1.1.1.2v.2l-.1.3-.1.2v1l.1.2h.1v.2l-.1.1-.2.2-.1.2.1.6-.3.8-.2.4v.6l.1.2.2.2.2.1.2.5.6.1.1.2.1.3.2.2.3.1.1.2.1.2.3.1.2.2v.3l.1.3v.3l.1.4h.2l.3-.1.3.1.2-.1.3-.1h.3l.9.3,1.8,1.2.5.2h.7l5.4,1.7.2.5.1.4-.2.4-.1.3-.1.9.1.4v.7l-.1.8-.1.4-.1.3-.1.3-.2.5-.1.3-.3.8-.3.3-.2.3-.5.6-.2.4-.2.8-.2.4-.4.7-.2.4v.3l-.1.4-.1.4v.6l.2.8.3.5,3.9,4.7.7.5.6.3,1.1-.1,1.1-.2h1.1l.8-.1.6-.5h.2l.3-.1.4.1.4.2.5.3,1.3,2.3.2.5v.4l-.2.8v.4l.6,1.6v.2l-.1.4-.2.2v.9l-.5.3-.3.3-.4.1-.2.4v.4l.2,1,.3.6.3.6.3.3.4.6.3.3.2.4v.2l-.1.2-1.3.9-.7.3-.8.1-1-.1h-.2l-.6.2-2.3-1.7-1.1-1-.2-.4-.1-.3v-.4l-.1-.4-.2-.2-.3-.2-1.5-.5-.4-.1-2.4.7-.4.2-.4.3-1,1-2.3,1.3h-.4l-.3-.2-.2-.3-.2-.2-.4-.1-.5.3-.7.6-1.3,1.5-.6,1.5-.2.8.1.4-.1.7-.2.4-.2.3-.5.4-.4.3-.4.9-.2.3v.9l.1.2.2.3.2.7.1.8.1,1.6v.9l.2,1.2v.9l-.1.3-.2.4-.3.4-3,2.4-2.4.8h-.8l-.3-.2-.5-.2-.3-.2-.1-.2-.2-.2-.1-.3v-.5l.1-.3v-.5l-.2-.2-.2-.2-.2-.2h-.2l-.7.1-.2-.1-.5-.3-.3-.1h-.3l-.4.2-.2.1-.3.3-.5.1h-.2l-.1.1v.3l-.1.3-2.1,1.3-1.5,1.2-1,.5-.7.2-1.3.3-1,.4-.4-.1-.2-.1-.7-.7-.3-.2h-.3l-.5.1-.6.4-1.1,1.2-1.7,1.6-.5.3-.8.1-.4.2-.5.3-1.2,1.1-.4.7-1.2,2.4-1.2,1.7-1.5,1.7-.2.4-.6,1.8-.5.2-.4-.1-4.3-1.2-3.3-1.6.5-.7.6-.6.2-.3.4-.7,2.5-3.3.1-.4-.1-.4-.2-.7v-.2l.1-.2.2-.1.2-.3.1-.3.1-.3v-.4l.1-.3v-.3l-.1-.4-.3-.5-1.3-.8-.2-.5-.1-.5v-1.3l-.1-.7-.2-.4v-.4l-.1-.4.1-.7-.1-.3-2.8-.8-.4-.4-.1-.3-.1-.3v-.4l.1-.4v-.7l-.1-.4-.1-.7.2-.6v-.2l-.1-.1-.4-.2-.6-.2-1.2-.1-.6.1-.6.2-.7.3-1.8-.8-1.5-.9-.5.4-.1.2-.8.7-.6.4h-.1l-.1.1-.2.1-1.2.6-.2.2-.4.3-.1.2v.1h-.1l-.2.1-.1.1-.1.1-.2.1h-.2l-.4-.3-.3-.3-.4-.1-.5-.1h-.5l-.6.1-.6.3-.8.6-.3.3v.6l-.1.3-.2.2-.3-.2-.6-.7-.9-1.3-.3-.3-.3-.2h-.4l-1.1.7-.6.6-.4.2h-.6l-1.3-.4-2.9-.2-.7-.1-.8-.3-.7-.3-.5-.2h-.6l-.9.1-.7.4-.3.3-.1.4-.1.4-.1.3-.2.3-.5.7-1,.6-1,.4-.5.1h-.5l-.7-.1-1.3-.4-.3-.1-.2-.4-.1-.3v-.4l-.2-.3-.2-.3-.4-.1-.5.1-.4.3-.2.4-.2,1.1-.1.3-.3.2-.5.1-.5.1-2.1-.6-.8-.1-1-.4h-.4l-.2.1-.4.1-.7-.2-.3-.2-.5-.1-.6.1-.6.1-.6.5-.3.3-.4.8-.8.4-1.3.2-11.5-.5-1.5-.5-.8-.1h-.9l-.3.1-.3.3-.1.4-.1,1.9-.6.1-.4-.1-2.6-1.1-.6-.1-1-.3-1.8-.9-.4-.2-.4-.5-.8-1.1-1.1-1.2-1.1-.9-.6-.3-.5-.4-.5-.2h-.4l-.4-.1-.3-.3-.3-.4-.2-.5-.4-.4-1.4-1.2-.7-.2-.8-.5-.1-.3-.3-.4-.5-.3-1.7-.8-.5-.1-.8-.1-.5-.1-.6-.2-.8-.6-.5-.5-.2-.5-.1-.8v-.4l-.1-.8-.1-.4-.4-.2h-1.2l-.5.1h-.9l-1.3-.6-2.3-1.7.6-.3.5-.1h.4l.3-.2.4-.5.4-1,1-3.7.2-.5.6-1.1.3-.3.3-.3.3-.2.4-.1.4-.1,1.1.2h.3l.2-.3.2-1.2.2-.7-.2-.6-.2-.3-1.1-.2-.3-.1-1.4-.4-.2-.3-.2-.3-.1-.4-.1-.3v-.8h-.1l-.1-.1-.2-.2-.2-.2-.1-.4v-.4l-.2-.4-.1-.3v-.4l.3-.3.4-.1.3.1.4.1,1,.6.7.3.4-.1.4-.1.9-.6.2-.3-.1-.5-.3-.3-.7-.4-.2-.3-.2-.5v-.7l.5-2.2.2-.6.1-.3.3-.3.6-.6.2-.3.3-.3.3-.3h.3l.7.2h.8l.7-.2.7.2.3.1.3.2,1.4.7.2.1h.6l-.5-.9-1.2-1.4-.4-.4-.3-.3v-.2l-.7-1.3-.8-1.9-.1-.5v-.5l.3-.4.3-.2.5-.1.4-.3.3-.5.6-1.7.6-1.2.2-.9-.6-1.7-.5.6-2,1.1-.5.7-.5.2-1.4.4-.9.5-.3.1-.3.1-.2.1-1,.6-2.6-1.3-.5-.5-.4-.3-.2-.2-.5-.6-.4-.6-1.2-1.4-.6-1-.3-.2-.7-.1-.6-.4-.3-.4-.6-.5-.9-.9-1.5-2-.3-.2-.6-.4-.3-.3-.3-.3-.1-.3.1-.3.4-.6.2-.4.3-.3.1-.4.5-.6.1-.3.1-.4.1-.3.1-1.2.2-.7.1-.3.1-.4-.1-.5-.3-.4-.5-.7-.1-.3.2-.8v-.5l-.2-.7-.1-.4-.3-.2h-.3l-.8.1-.3.1-.8.7-.3.5-.5.7-.2.2-.3.1-.5-.1-1.4-.3-.2-.2-.1-.5.1-1.1.1-.5v-.6l.1-.7.2-.4.5-.7.1-.3v-.4l-.2-.3-.2-.3-.3-.3-.3-.3-.3-.1-.4-.1-1.1.1-.8.1-.3.2-.2-.7v-1.4l.6-3.9.3-2.8-.1-.5v-.6l.2-1.3.2-.4.1-.2,1.2-.6,4,.5,1.1.5.5.4h.9l.7-.1.4-.2.2-.2.2-.2,1.6-1.2.2-.3.3-.4.3-.3.5-.2,1.1-.3.4-.1.3.3.2,1.5.2.2.6.2.9-.2.6-.3.9-.6.3-.3.2-.3.1-.4.1-.4.4-.7.4-.3.7-.5.4-.4.9-.5.7-.6.4-.6.1-.5.1-.4.2-.8.2-.2h.9l1.9-.3.8-.3.5.1.2.3-.1.4.1.4.1.3.2,1.3.1.4.2.3.3.2.8.4.5.1h.6l.9-.3,1.3-.5.9.6.6.2.5-.1.4-.2.2-.3.4-.4.5-.3,1.2-.5.6-.4.4-.4.2-.5,1.2-1.2.3-.4.2-.4.5-.8h.4l.3.2.1.4.1.3-.1.8v.4l.1.3.3.8.3.3.3.3.6.2.6.7h.2l.2-.1.5-.5.3-.3.3-.5.3-.6.3-.3.4-.3,1-.2,1-.6h.4l.3.3.3.3,1.1,1.1.6.2.8.2.5-.2.4-.3.4-.3.3.1.9.3.4.3.3.3.2.4.2.3.4.3.5.3,2.2.7,1.2.6,2,.5.2.1.2.2.2.3.4.4h.4l.7-.2.3.1.3.2.6.9.3.2.2.2.5.1,1-.2.6.1.6.2.8.1,1.9.9.4.4.2.3v.7l-.1.3-.3,1.1-.1.2-.4.5v.2l-.2.2-.5.3-.3.1-.5.3-1.9,2-.7.5-.7.3-.2.1-.7.8-.2.2h-.5l-2.5.8-.5.3-.3.3.1.4.5.4,1.3.8.6.1.5-.1.3-.4.7-.5.3-.1.6-.6.4-.4.2-.3.3-.1.5-.2h.7l.5-.2.7-.5.9-.3.4-.2.1-.3-.1-.7.2-.2.6-.3.8-.2.3-.3.3-.2.3-.1,1.6-.4.4-.2.2-.3.2-.6.6-.4,3.8.1,1.4-.6.8.6.4.1.5-.2,1.7-.3,2.5-1.3,1.6-.5.7.4.2.2v.5l2.1-.1.8-.2.6-.5.4-.5.2-.4v-.3l-.1-.4-.2-.3-.2-.3-.2-.4-.1-.4-.1-.4-.1-.4.2-.2.1-.1.3.1-.4-2.1v-1.6l-.1-.6-.4-1-.3-.6-.5-.4-.4.1-1,.8-.3.3-.3.3-.3.3h-.3l-.3-.4-.1-.7.1-.6.1-.5.1-.4.1-.5.1-.6.2-.4.6-.6.2-.3v-.2l.1-.3.1-.5.2-.2v-1.2l.1-.2.1-.5-.2-.5-.6-1.1-.5-.4-.4-.2-.4-.1-.3-.2-.1-.4v-1.5l-.1-1.1v-.4l-.1-.3-.9-.9-.3-.2-.3-.3-.3-.1-.3-.1-.3.1-.3.1-.2.2-.3.1h-.2l-.2-.1-.1-.2.1-.2.1-.2.1-.1v-.3l-.1-.4-.1-.4-.5-.5-.4-.2-.2-.4-.2-.4.1-1.5.2-1.1-.3-.1-.2.1-.3.1h-.3l-.4-.3-.5-.5-.5-1-.4-.5h-.3l-.1.3-.2.2h-.6l-.6.1-.3-.1-.3-.3-.2-.3-.2-.3.2-.5.5-.7.1-.3v-.4l-.1-.4-.1-.7-.1-.6-.2-.5-.3-.4-1.2-.3-.3-.2-.1-.2v-.2l.2-.2.1-.2.3-.5.2-.5v-.4l.3-1.5.1-.3.1-.2.2-.1.2-.1.2-.2.2-.3v-.6l-.2-.4v-.4l.2-.4.1-.5.2-.4.1-.4.4-1.2.1-.4.2-.4.3-.7.1-.5v-.8l-.6-1.6-.5-1.8-.4-.2-.3-.1-.9-.5-.3-.2-.4-.4-.4-.7-1.5-1.5-.2-1,.7.1.4-.1,3.1-2.4.9-.2.3-.2.1-.4.1-.8v-.4l-.2-.3-.2-.4-.1-.2.1-.2,1.1.5,2,.1,2-.4.4-.3h1.3l1.2-1.4.8-.5,4.7,1.1h1.4l2.7-.3.9-.2.6-.4.1-.4.3-.3.2-.3.3-.2.5-.1.5.1.7.3.2.4.1.4.1.4.3.7.3.4.5.2,1.5.5,1-.1.4-.2.4-.3.4-.2h.4l.5.1.4.3.2.4.2.4.4.2.8.2,1,.2.6.3.3.4.3.3.3.1.3-.1h.7l.3.3-.1.3-.2.4-.6.4-.1.2.3.3.7.4.2.4v.3l-.3.6.1.3.3.2h.4l.7-.3.4-.2.4-.1.3.2.2.4.2.3.1.4.1.3.1.1.2.2.5.2.3.2.2.3.2.8.2.4.3.3.4.3,1.1.5h.5l1.3-.7.5-.1.5.1.3.3.7.4.6.1,1-.2.6-.2.5-.3.5-.4.5-.3.7-.1.9.2.4-.1.4-.1,1.3-1.2.3-.2.3.1.3.2.3.3,1,.6.2.3.2.3.3.3.3.1.3-.2v-.3l-.1-.3v-1l.3-1.4v-.8l3.3-1,1.1.3.2.4.4.4.5.3,1,.5,1.7,1.2,1.3.8,2,1.7.3.4.2.3.1.4.3.3.5.7,2.2,1.9.3.3.4.5.2.3,1.4,1.2.5,1.1-.1.4-.1,1.8.3.8.3.7.3.4.5.6,1.1.7.3.5.2.4v.4l.1,1.3-.1.5-.4.8-.2.5v.4l-.1.6.2.4.3.5.2.7.2.6-.1,1.1-.1.4-.3.7-.2.9-.1.6.2,1-.2.3-.2.4-.4.2-.7.4-.3.1-.4-.1-.3-.2-.3-.2-.7-.3h-.3l-1.1-.3-.2.2-.2.4-.7,1.9v2.6l-.3.4-.3.3-.7.4-.4.3-.4.4-1.3,2.1-.3.2-.2.1-.5.7,1.2.5.7.7,1.6,2.3.2.7v.6l-.2.4.1.7.2.1.2-.2.4-.2.6.1,1,.6,4.2,4.1.6.4.3.1.5-.3h.5l.5.1.6.3h.5l1-.2.2.3.1.3v.4l-.1.4-.1.6-.3.5-.1,1,.2.3.2.3,1,.5.2.3.1.4.1.6,1.2,3.4.3.3.4.1h.4l2.6.4,1.1.4.6.1.4-.2.4-.1.7-.1.8-.1.3-.1.7-.2h0Z" fill="#FFFFFF" id="ESCM" stroke="#000000" stroke-linecap="round" stroke-linejoin="round" stroke-width="0.5"/></a>
<a target="_blank" xlink:href="https://rosschris.com/Madrid"><path d="M343.05,169.45l.7,1.7-2.5.2.1-1.3.8-.8.9.2h0ZM331.15,194.95l.5-.9.4-1.8.5-1.1.2-.3.1-.4-.1-.4-.2-.7-.1-.4v-.4l.3-.3h.3l.2.2.5.7.2.2.2.1.7-.1.4-.1.5-.3.3-.5.4-.8.1-.5.1-.4v-.3l.1-.9.2-.3.3-.4.3-.1.2-.2h.5l.3.1.3.1h.4l.3-.1,1.1-.1.4-.2.1-.3-.2-.8.3-1.1.2-.4v-.8l-.1-.3v-.7l.1-.2-.1-.3v-2.1l.3-.5.3-.3.3-.2.1-.1.1-.2.1-.2.2-.6v-.7l-.1-.4-.2-.4v-.5l.2-.3h.3l.2.2.3.6.3.3.3.1.4.1.7-.1.8-.3.4-.2.4-.1.4-.4.1-.3v-.8l.2-.9v-.4l.2-1,1.2-1.7.2-.3,1.5-2.4.4-.4.8-.4h.5l.5.1.3.2h.4l.9-.2.3-.1.2-.2.2-.4.1-.4.3-.8.1-.4.1-.8v-.4l.2-.4.3-.5.1-.4v-.4l-.1-.7v-.4l.2-.4.5-1,.6-.7.3-.5.4-.5.4-.3,3.5-1.2.4-.2.4-.3.5-.9.2-.4.3-.4.3-.8.4-.5.6-.5,1.8-1.2.8-.9.7-.9.2-.4.3-.4.5-.4,1.2-.8,1.9-.4.2,1,1.5,1.5.4.7.4.4.3.2.9.5.3.1.4.2.5,1.8.6,1.6v.8l-.1.5-.3.7-.2.4-.1.4-.4,1.2-.1.4-.2.4-.1.5-.2.4v.4l.2.4v.6l-.2.3-.2.2-.2.1-.2.1-.1.2-.1.3-.3,1.5v.4l-.2.5-.3.5-.1.2-.2.2v.2l.1.2.3.2,1.2.3.3.4.2.5.1.6.1.7.1.4v.4l-.1.3-.5.7-.2.5.2.3.2.3.3.3.3.1.6-.1h.6l.2-.2.1-.3h.3l.4.5.5,1,.5.5.4.3h.3l.3-.1.2-.1.3.1-.2,1.1-.1,1.5.2.4.2.4.4.2.5.5.1.4.1.4v.3l-.1.1-.1.2-.1.2.1.2.2.1h.2l.3-.1.2-.2.3-.1.3-.1.3.1.3.1.3.3.3.2.9.9.1.3v.4l.1,1.1v1.5l.1.4.3.2.4.1.4.2.5.4.6,1.1.2.5-.1.5-.1.2v1.2l-.2.2-.1.5-.1.3v.2l-.2.3-.6.6-.2.4-.1.6-.1.5-.1.4-.1.5-.1.6.1.7.3.4h.3l.3-.3.3-.3.3-.3,1-.8.4-.1.5.4.3.6.4,1,.1.6v1.6l.4,2.1-.3-.1-.1.1-.2.2.1.4.1.4.1.4.2.4.2.3.2.3.1.4v.3l-.2.4-.4.5-.6.5-.8.2-2.1.1v-.5l-.2-.2-.7-.4-1.6.5-2.5,1.3-1.7.3-.5.2-.4-.1-.8-.6-1.4.6-3.8-.1-.6.4-.2.6-.2.3-.4.2-1.6.4-.3.1-.3.2-.3.3-.8.2-.6.3-.2.2.1.7-.1.3-.4.2-.9.3-.7.5-.5.2h-.7l-.5.2-.3.1-.2.3-.4.4-.6.6-.3.1-.7.5-.3.4-.5.1-.6-.1-1.3-.8-.5-.4-.1-.4.3-.3.5-.3,2.5-.8h.5l.2-.2.7-.8.2-.1.7-.3.7-.5,1.9-2,.5-.3.3-.1.5-.3.2-.2v-.2l.4-.5.1-.2.3-1.1.1-.3v-.7l-.2-.3-.4-.4-1.9-.9-.8-.1-.6-.2-.6-.1-1,.2-.5-.1-.2-.2-.3-.2-.6-.9-.3-.2-.3-.1-.7.2h-.4l-.4-.4-.2-.3-.2-.2-.2-.1-2-.5-1.2-.6-2.2-.7-.5-.3-.4-.3-.2-.3-.2-.4-.3-.3-.4-.3-.9-.3-.3-.1-.4.3-.4.3-.5.2-.8-.2-.6-.2-1.1-1.1-.3-.3-.3-.3h-.4l-1,.6-1,.2-.4.3-.3.3-.3.6-.3.5-.3.3-.5.5-.2.1h-.2l-.6-.7-.6-.2-.3-.3-.3-.3-.3-.8-.1-.3v-.4l.1-.8-.1-.3-.1-.4-.3-.2h-.4l-.5.8-.2.4-.3.4-1.2,1.2-.2.5-.4.4-.6.4-1.2.5-.5.3-.4.4-.2.3-.4.2-.5.1-.6-.2-.9-.6h0Z" fill="#FFFFFF" id="ESMD" stroke="#000000" stroke-linecap="round" stroke-linejoin="round" stroke-width="0.5"/></a>
<a target="_blank" xlink:href="https://rosschris.com/Ceuta"><path d="M299.75,418.65l.1-.1v-.5l.1-.2v-.1h-.2v-.2h-.1v.1h-.1l-.2-.1-.1-.2h-.3v-.1h-.2v-.2l-.1-.3v-.2l-.1-.2h.1-.1v-.5h-.1v-.1h-.1v-.1.1h-.1l-.3.1-.2-.8.5-.1.8.2.8.5.7.5.7.1,1.1-.5-.3,1.1-1.8,1.3-.2.8-.3-.3h0Z" fill="#FFFFFF" id="ESCE" stroke="#000000" stroke-linecap="round" stroke-linejoin="round" stroke-width="0.5"/></a>
<a target="_blank" xlink:href="https://rosschris.com/Melilla"><path d="M398.05,447.35v-.3l-.1-.1v-.1.2h.1v.2l-.1-.1h-.1l.1.2h-.1l-.1-.1v.1h.1l-.3.1-.6.2-.6-.6-.3-.2v-1l.1-.4.2-.2.2-.1-.1-.1h.1v-.1h-.1v.1-.1l.1-.2.2-.1,1.4,2.7h-.1Z" fill="#FFFFFF" id="ESML" stroke="#000000" stroke-linecap="round" stroke-linejoin="round" stroke-width="0.5"/></a>
</g>
<g id="points">
<rect data-name="0" fill="#6f9c76" id="_0" stroke="#fff" stroke-linecap="round" stroke-linejoin="round" stroke-width=".5" x="45.65" y="475.95"/>
<rect data-name="1" fill="#6f9c76" id="_1" stroke="#fff" stroke-linecap="round" stroke-linejoin="round" stroke-width=".5" x="281.95" y="465.35"/>
<rect data-name="2" fill="#6f9c76" id="_2" stroke="#fff" stroke-linecap="round" stroke-linejoin="round" stroke-width=".5" x="645.55" y="45.05"/>
</g>
<g data-name="label points" id="label_points">
<rect data-name="ESNC" fill="#6f9c76" id="ESNC-2" stroke="#fff" stroke-linecap="round" stroke-linejoin="round" stroke-width=".5" x="448.85" y="62.55"/>
<rect data-name="ESPV" fill="#6f9c76" id="ESPV-2" stroke="#fff" stroke-linecap="round" stroke-linejoin="round" stroke-width=".5" x="410.55" y="39.45"/>
<rect data-name="ESRI" fill="#6f9c76" id="ESRI-2" stroke="#fff" stroke-linecap="round" stroke-linejoin="round" stroke-width=".5" x="414.95" y="81.85"/>
<rect data-name="ESCT" fill="#6f9c76" id="ESCT-2" stroke="#fff" stroke-linecap="round" stroke-linejoin="round" stroke-width=".5" x="577.65" y="109.35"/>
<rect data-name="ESAR" fill="#6f9c76" id="ESAR-2" stroke="#fff" stroke-linecap="round" stroke-linejoin="round" stroke-width=".5" x="490.05" y="125.25"/>
<rect data-name="ESEX" fill="#6f9c76" id="ESEX-2" stroke="#fff" stroke-linecap="round" stroke-linejoin="round" stroke-width=".5" x="267.95" y="247.95"/>
<rect data-name="ESGA" fill="#6f9c76" id="ESGA-2" stroke="#fff" stroke-linecap="round" stroke-linejoin="round" stroke-width=".5" x="200.55" y="59.25"/>
<rect data-name="ESCL" fill="#6f9c76" id="ESCL-2" stroke="#fff" stroke-linecap="round" stroke-linejoin="round" stroke-width=".5" x="314.85" y="110.75"/>
<rect data-name="ESVC" fill="#6f9c76" id="ESVC-2" stroke="#fff" stroke-linecap="round" stroke-linejoin="round" stroke-width=".5" x="486.55" y="242.55"/>
<rect data-name="ESMC" fill="#6f9c76" id="ESMC-2" stroke="#fff" stroke-linecap="round" stroke-linejoin="round" stroke-width=".5" x="455.35" y="313.35"/>
<rect data-name="ESAN" fill="#6f9c76" id="ESAN-2" stroke="#fff" stroke-linecap="round" stroke-linejoin="round" stroke-width=".5" x="321.15" y="333.05"/>
<rect data-name="ESAS" fill="#6f9c76" id="ESAS-2" stroke="#fff" stroke-linecap="round" stroke-linejoin="round" stroke-width=".5" x="279.15" y="26.85"/>
<rect data-name="ESCB" fill="#6f9c76" id="ESCB-2" stroke="#fff" stroke-linecap="round" stroke-linejoin="round" stroke-width=".5" x="349.95" y="34.05"/>
<rect data-name="ESCN" fill="#6f9c76" id="ESCN-2" stroke="#fff" stroke-linecap="round" stroke-linejoin="round" stroke-width=".5" x="168.05" y="479.15"/>
<rect data-name="ESIB" fill="#6f9c76" id="ESIB-2" stroke="#fff" stroke-linecap="round" stroke-linejoin="round" stroke-width=".5" x="635.75" y="226.55"/>
<rect data-name="ESCM" fill="#6f9c76" id="ESCM-2" stroke="#fff" stroke-linecap="round" stroke-linejoin="round" stroke-width=".5" x="415.75" y="236.95"/>
<rect data-name="ESMD" fill="#6f9c76" id="ESMD-2" stroke="#fff" stroke-linecap="round" stroke-linejoin="round" stroke-width=".5" x="363.65" y="178.95"/>
<rect data-name="ESCE" fill="#6f9c76" id="ESCE-2" stroke="#fff" stroke-linecap="round" stroke-linejoin="round" stroke-width=".5" x="299.75" y="416.65"/>
<rect data-name="ESML" fill="#6f9c76" id="ESML-2" stroke="#fff" stroke-linecap="round" stroke-linejoin="round" stroke-width=".5" x="396.85" y="446.45"/>
</g>
</svg>